<svg width="105" height="22" viewBox="0 0 105 22" fill="none" xmlns="http://www.w3.org/2000/svg">
<path d="M10 1L13.09 7.26L20 8.27L15 13.14L16.18 20.02L10 16.77L3.82 20.02L5 13.14L0 8.27L6.91 7.26L10 1Z" fill="#FDC023"/>
<path d="M31 1L34.09 7.26L41 8.27L36 13.14L37.18 20.02L31 16.77L24.82 20.02L26 13.14L21 8.27L27.91 7.26L31 1Z" fill="#FDC023"/>
<path d="M52 1L55.09 7.26L62 8.27L57 13.14L58.18 20.02L52 16.77L45.82 20.02L47 13.14L42 8.27L48.91 7.26L52 1Z" fill="#FDC023"/>
<path d="M73 1L76.09 7.26L83 8.27L78 13.14L79.18 20.02L73 16.77L66.82 20.02L68 13.14L63 8.27L69.91 7.26L73 1Z" fill="#FDC023"/>
<path d="M94 1L97.09 7.26L104 8.27L99 13.14L100.18 20.02L94 16.77L87.82 20.02L89 13.14L84 8.27L90.91 7.26L94 1Z" stroke="black" stroke-width="2" stroke-linecap="round" stroke-linejoin="round"/>
</svg>
