<svg width="24" height="25" viewBox="0 0 24 25" fill="none" xmlns="http://www.w3.org/2000/svg">
<path d="M21.2913 4.63185C20.7805 4.12085 20.1741 3.71549 19.5066 3.43893C18.8392 3.16237 18.1238 3.02002 17.4013 3.02002C16.6788 3.02002 15.9634 3.16237 15.2959 3.43893C14.6285 3.71549 14.022 4.12085 13.5113 4.63185L12.4513 5.69185L11.3913 4.63185C10.3596 3.60015 8.96032 3.02055 7.50129 3.02055C6.04226 3.02055 4.64298 3.60015 3.61129 4.63185C2.5796 5.66354 2 7.06281 2 8.52184C2 9.98088 2.5796 11.3802 3.61129 12.4118L4.67129 13.4718L12.4513 21.2518L20.2313 13.4718L21.2913 12.4118C21.8023 11.9011 22.2076 11.2947 22.4842 10.6272C22.7608 9.95974 22.9031 9.24433 22.9031 8.52184C22.9031 7.79936 22.7608 7.08395 22.4842 6.41649C22.2076 5.74903 21.8023 5.1426 21.2913 4.63185Z" fill="#F5EFEF"/>
</svg>
