<svg width="79" height="78" viewBox="0 0 79 78" fill="none" xmlns="http://www.w3.org/2000/svg">
<path d="M28.536 34.66V36.88H27.996V35.2H20.748V38.56H28.536V43H18.744V40.78H19.284V42.46H26.532V39.1H18.744V34.66H28.536ZM33.6772 35.2V42.46H35.8372V43H29.5132V42.46H31.6732V35.2H29.5132V34.66H35.8372V35.2H33.6772ZM46.8223 42.46H48.1543V43H45.2263V42.46H46.1503L43.6303 39.1H39.6463V42.46H40.8463V43H36.4543V42.46H37.6423V35.2H36.4543V34.66H40.8463V35.2H39.6463V38.56H43.6183L45.7063 35.2H44.7343V34.66H47.6623V35.2H46.3543L44.0983 38.812L46.8223 42.46ZM60.646 35.2H59.458V43H48.466V42.46H49.654V35.2H48.466V34.66H52.846V35.2H51.658V42.46H58.918V35.2H57.718V34.66H60.646V35.2Z" fill="white"/>
<path d="M31.2982 6.19716C31.5632 6.24609 31.7942 6.36457 31.9915 6.55262C32.1888 6.74066 32.3306 6.9355 32.4168 7.13714C32.4559 7.322 32.4552 7.47519 32.4145 7.59671C32.3838 7.72305 32.3307 7.83236 32.2551 7.92461C32.1821 8.02426 32.099 8.10671 32.0059 8.17199C31.9153 8.24465 31.8258 8.30865 31.7375 8.36399L31.5522 8.36606C31.5025 8.3419 31.4541 8.32144 31.407 8.30467C31.3525 8.29046 31.3016 8.27496 31.2545 8.25819C31.1909 8.31326 31.1619 8.37288 31.1676 8.43705C31.1658 8.50378 31.1641 8.57051 31.1624 8.63723C31.1683 8.72611 31.1706 8.81627 31.1691 8.9077C31.1676 8.99913 31.1588 9.09311 31.1426 9.18965C31.173 9.25355 31.1897 9.3139 31.1928 9.37069C31.1959 9.42748 31.1964 9.47689 31.1944 9.51891C31.2515 9.54051 31.2911 9.54748 31.3133 9.53982C31.3306 9.5421 31.364 9.54296 31.4134 9.54241C31.4355 9.53475 31.4577 9.52709 31.4798 9.51944C31.5045 9.51916 31.5329 9.51761 31.565 9.51478C31.7038 9.5577 31.8006 9.59863 31.8554 9.63755C31.9054 9.6864 31.959 9.73398 32.0164 9.78029C32.0737 9.82659 32.1248 9.86679 32.1697 9.90088C32.2145 9.93497 32.2618 9.96409 32.3115 9.98824L32.475 10.0309L32.4545 10.1868C32.4449 10.2066 32.4439 10.2277 32.4515 10.2498C32.4617 10.2793 32.4905 10.3148 32.5379 10.3563C32.5933 10.4446 32.6212 10.5135 32.6218 10.5629L32.6456 10.7035C32.6049 10.825 32.5835 10.8944 32.5812 10.9117L32.5087 11.0608C32.3542 11.1638 32.1973 11.2718 32.038 11.3848C31.8812 11.5051 31.7281 11.6242 31.5787 11.7419C31.4293 11.8597 31.2762 11.9788 31.1194 12.0991C30.9627 12.2195 30.8033 12.3324 30.6414 12.438C30.6002 12.5101 30.5477 12.5614 30.4838 12.5917C30.4151 12.632 30.3524 12.6661 30.2959 12.6939C30.2442 12.7117 30.1975 12.732 30.1558 12.7547C30.114 12.7774 30.0872 12.8074 30.0752 12.8446C29.965 12.9323 29.856 13.0113 29.748 13.0817C29.547 13.2174 29.2796 13.3883 28.9458 13.5947C28.6121 13.801 28.2265 14.0005 27.7888 14.1931L27.5601 14.2846C27.5132 14.2925 27.4676 14.3042 27.4233 14.3195C27.3816 14.3422 27.3386 14.3612 27.2943 14.3765C26.9103 14.5093 26.6147 14.4792 26.4075 14.2863C26.3209 14.2749 26.2379 14.2499 26.1584 14.2113C26.0814 14.18 26.0082 14.1475 25.9386 14.1137C25.889 14.0895 25.8442 14.0678 25.8045 14.0485C25.7673 14.0365 25.7351 14.027 25.7078 14.0199L25.5886 13.9619C25.4461 13.8128 25.3713 13.6444 25.3643 13.4567C25.378 13.3528 25.4081 13.2845 25.4547 13.2519C25.5012 13.2192 25.5478 13.1866 25.5944 13.1539L25.7116 13.0266C25.8101 13.0008 25.8852 12.979 25.9369 12.9611C25.9812 12.9458 26.0329 12.9279 26.092 12.9075C26.3135 12.8309 26.5668 12.7268 26.8519 12.5951C27.1322 12.4734 27.4148 12.3344 27.6997 12.178C27.9871 12.0291 28.262 11.8679 28.5244 11.6945C28.7894 11.5284 29.0149 11.3678 29.201 11.2125C29.2447 11.1478 29.3082 11.0804 29.3914 11.0103C29.411 10.9953 29.4379 10.9653 29.4719 10.9205C29.4441 10.8639 29.4237 10.8049 29.4107 10.7433C29.4002 10.689 29.3934 10.6335 29.3903 10.5767C29.3849 10.5372 29.3782 10.4941 29.3703 10.4472C29.3575 10.4103 29.3472 10.3684 29.3393 10.3216C29.4305 10.0834 29.429 9.84001 29.3348 9.59152L29.3519 9.46162C29.3712 9.42188 29.3818 9.36864 29.3835 9.30191C29.3804 9.24512 29.3612 9.18974 29.326 9.13578L29.2358 9.01819C29.0932 9.08402 28.9543 9.14857 28.8192 9.21185C28.6792 9.28506 28.5318 9.36082 28.377 9.43914C28.183 9.54754 27.9865 9.64856 27.7874 9.74219C27.5835 9.84576 27.3671 9.93712 27.1382 10.0163L26.7062 10.1656L26.7715 10.0315L26.6458 10.0625L26.651 9.86233C26.5916 9.85805 26.5483 9.85236 26.5211 9.84525C26.489 9.84808 26.4593 9.84594 26.4321 9.83883L26.3162 9.75488C26.2717 9.7455 26.2257 9.72007 26.1783 9.67859C26.1334 9.6445 26.0933 9.58813 26.0578 9.50946L26.0527 9.38722L26.3435 8.54271L26.3793 8.43113L26.5016 8.42606C26.6444 8.38494 26.7722 8.32422 26.8849 8.2439C26.9389 8.20871 26.9953 8.16855 27.0541 8.12342C27.1154 8.08568 27.1793 8.05531 27.2458 8.03234C27.4128 7.94153 27.5515 7.86463 27.662 7.80163C27.775 7.74602 27.8881 7.6904 28.0011 7.63479C28.1533 7.54909 28.3018 7.46466 28.4467 7.38152C28.5867 7.3083 28.7142 7.22288 28.8293 7.12524C28.9079 7.08977 28.9546 7.06949 28.9694 7.06438C28.9867 7.06666 29.0028 7.06525 29.0175 7.06014C29.0914 7.03461 29.1614 6.998 29.2276 6.95032C29.2937 6.90264 29.3562 6.85624 29.415 6.81111C29.4466 6.75888 29.462 6.70805 29.4615 6.65865C29.4635 6.61662 29.4642 6.57091 29.4637 6.5215C29.4606 6.46471 29.4648 6.40536 29.4765 6.34347C29.4833 6.29151 29.4963 6.2333 29.5153 6.16885L29.4353 5.97332C29.4967 5.93558 29.5261 5.91302 29.5235 5.90563C29.5235 5.90563 29.5272 5.90436 29.5346 5.9018C29.5142 5.84273 29.5061 5.78353 29.5104 5.72418C29.5073 5.66739 29.5054 5.61429 29.5049 5.56489C29.5094 5.53025 29.5116 5.50057 29.5113 5.47587C29.511 5.45117 29.5071 5.42774 29.4994 5.40559C29.3796 5.29821 29.3088 5.15323 29.287 4.97064C29.2681 4.82014 29.28 4.67548 29.323 4.53664C29.3684 4.40519 29.4363 4.29078 29.5267 4.19341C29.6397 4.1378 29.7296 4.11085 29.7963 4.11258C29.8556 4.11686 29.9187 4.11986 29.9854 4.12159C30.0274 4.12359 30.0682 4.1219 30.1077 4.11652C30.1497 4.11853 30.1904 4.11684 30.2299 4.11145L30.4011 4.17625C30.4386 4.2129 30.4784 4.24457 30.5207 4.27128C30.5656 4.30537 30.6105 4.33946 30.6553 4.37355C30.7101 4.41247 30.7649 4.45139 30.8197 4.49031C30.8745 4.52923 30.9281 4.57681 30.9806 4.63305C31.1217 4.8736 31.2068 5.0839 31.236 5.26393C31.2603 5.4539 31.2723 5.64401 31.272 5.83426C31.2776 5.89843 31.282 5.95892 31.2851 6.01571C31.2882 6.0725 31.2926 6.13298 31.2982 6.19716Z" fill="white"/>
<path d="M22.7255 13.5796C22.804 13.6458 22.8598 13.6801 22.8929 13.6824C22.9441 13.8243 23.0045 13.953 23.0741 14.0685C23.143 14.195 23.2127 14.3105 23.2831 14.415C23.3432 14.5077 23.3982 14.5945 23.448 14.6754C23.492 14.7615 23.5304 14.8471 23.5633 14.9325C23.4838 15.0433 23.4461 15.1487 23.4504 15.2487C23.4539 15.3596 23.4615 15.4515 23.4731 15.5243C23.3723 15.6226 23.2917 15.667 23.2315 15.6573C23.1653 15.6528 23.0757 15.6273 22.9626 15.5808C22.8767 15.5417 22.7738 15.507 22.6541 15.4767C22.5395 15.4523 22.4112 15.4657 22.2693 15.5169C22.1951 15.4675 22.1206 15.4237 22.0457 15.3853C21.9708 15.347 21.8904 15.3083 21.8045 15.2692C21.6436 15.1918 21.4806 15.1059 21.3154 15.0116C21.1553 14.9231 21.021 14.8226 20.9124 14.71C20.8649 14.5129 20.7848 14.3081 20.672 14.0956C20.5532 13.8881 20.4201 13.688 20.2727 13.4952C20.1246 13.3134 19.9697 13.1478 19.8083 12.9984C19.6468 12.8489 19.4967 12.7363 19.3579 12.6603L19.1817 12.5653L19.0028 12.7524C18.8371 12.9902 18.6971 13.216 18.5828 13.4297C18.4737 13.6493 18.3866 13.8703 18.3216 14.0929C18.2566 14.3155 18.2077 14.5447 18.175 14.7806C18.1474 15.0224 18.1319 15.2898 18.1285 15.5831C18.131 15.8712 18.1662 16.167 18.2341 16.4707C18.3071 16.7802 18.4058 17.0777 18.5303 17.363C18.6489 17.6535 18.7852 17.9286 18.9391 18.1883C19.093 18.4479 19.2488 18.6801 19.4065 18.8846C19.3409 19.0352 19.3535 19.1745 19.4444 19.3025L19.5711 19.3942C19.6144 19.4082 19.6463 19.427 19.6669 19.4506C19.6867 19.4851 19.701 19.5193 19.7097 19.5532C19.7807 19.7297 19.7679 19.917 19.6713 20.1153C19.5037 20.1371 19.3398 20.1453 19.1796 20.1399C19.0135 20.1396 18.8563 20.1317 18.7078 20.116C18.5574 19.9673 18.4132 19.8495 18.2752 19.7625C18.1423 19.6815 18.009 19.6059 17.8753 19.5359C17.7468 19.4718 17.6268 19.4054 17.5152 19.3369C17.3977 19.2735 17.274 19.1793 17.1441 19.0541C17.0489 18.8261 16.9467 18.6198 16.8375 18.4352C16.7275 18.2615 16.6099 18.0791 16.4845 17.8878L16.4174 17.7753C16.3642 17.5003 16.3059 17.2195 16.2424 16.9327C16.1781 16.657 16.1168 16.4203 16.0583 16.2225C16.0628 16.1564 16.0593 16.0869 16.0476 16.0141C16.0301 15.9465 16.0125 15.8788 15.995 15.8112C15.9914 15.7833 15.9834 15.7384 15.971 15.6767C15.9527 15.6201 15.9447 15.5752 15.9469 15.5421L16.2282 15.4368L16.0424 15.1168L16.1529 14.9582L16.1511 14.7421C16.0811 14.3885 16.0533 14.0654 16.0677 13.773C16.0762 13.4856 16.1208 13.198 16.2014 12.91C16.276 12.6272 16.3823 12.3271 16.5203 12.0098C16.6575 11.7036 16.8223 11.3577 17.0147 10.9721C17.1479 10.8871 17.2586 10.8061 17.3469 10.729C17.4345 10.663 17.522 10.597 17.6096 10.531C17.692 10.4591 17.7741 10.3927 17.8558 10.3319C17.9374 10.271 18.0334 10.2028 18.1438 10.1273C18.2136 10.1597 18.2793 10.1698 18.3411 10.1574C18.4028 10.145 18.4514 10.1234 18.4867 10.0925C18.6558 10.0487 18.816 10.0541 18.9673 10.1087C19.1186 10.1634 19.2832 10.2272 19.4609 10.3002C19.552 10.3452 19.646 10.3876 19.7429 10.4275C19.834 10.4724 19.9313 10.5068 20.0349 10.5305L19.9045 10.7375L20.3652 10.8022C20.3983 10.8044 20.4343 10.8041 20.4732 10.8012C20.5063 10.8035 20.5419 10.8087 20.5801 10.8168L20.7265 10.9846C21.1711 11.4469 21.5706 11.8811 21.9249 12.2874C22.2785 12.7047 22.5384 13.1155 22.7046 13.52L22.7255 13.5796Z" fill="white"/>
<path d="M10.2507 19.7441C10.2608 19.7056 10.3008 19.686 10.3707 19.6853C10.4476 19.6881 10.5227 19.6857 10.596 19.678L10.5394 19.7938C10.7178 19.8201 10.8651 19.8747 10.9811 19.9575C11.1008 20.0507 11.2117 20.144 11.3139 20.2374C11.4231 20.3342 11.5287 20.4206 11.6308 20.4965C11.7364 20.5829 11.8644 20.6324 12.0147 20.645C11.9765 20.6698 11.9715 20.6978 11.9998 20.729C12.0316 20.7706 12.0739 20.8087 12.1266 20.8431C12.1829 20.888 12.2444 20.9224 12.311 20.9462C12.3812 20.9805 12.4391 21.0044 12.4846 21.018C12.6576 21.2156 12.848 21.3955 13.0556 21.5578C13.2598 21.7271 13.464 21.8877 13.668 22.0396C13.8791 22.1948 14.0779 22.3485 14.2645 22.5005C14.4547 22.663 14.624 22.8326 14.7723 23.0094C14.7384 23.1146 14.6746 23.2095 14.5811 23.2942C14.4911 23.3894 14.4095 23.4408 14.3361 23.4485C14.3983 23.7484 14.5076 24.0409 14.6639 24.3259C14.8203 24.611 14.9697 24.8926 15.112 25.1708C15.2579 25.4595 15.3655 25.7555 15.4346 26.0588C15.5038 26.3622 15.4771 26.6839 15.3544 27.0239C15.1528 27.1341 14.9304 27.2602 14.6871 27.4022C14.4508 27.5476 14.1983 27.6373 13.9296 27.6712C13.8671 27.7102 13.8028 27.744 13.7366 27.7726C13.6741 27.8116 13.6116 27.8506 13.549 27.8896L13.3911 27.8125C13.2518 27.8662 13.1036 27.8937 12.9464 27.8952C12.7928 27.9071 12.6337 27.9033 12.4693 27.8839C12.3085 27.8749 12.1459 27.8606 11.9815 27.8412C11.8171 27.8217 11.6598 27.8145 11.5096 27.8193C11.4744 27.7847 11.4392 27.7588 11.4041 27.7417C11.3726 27.735 11.3376 27.7266 11.2991 27.7165C11.2641 27.7168 11.2239 27.7102 11.1783 27.6966C11.1398 27.6865 11.0925 27.6677 11.0363 27.6403C10.678 27.4304 10.4361 27.1601 10.3108 26.8294C10.1891 26.509 10.1299 26.1584 10.1334 25.7776C10.1404 25.4071 10.1754 25.0242 10.2381 24.6288C10.3078 24.2368 10.3516 23.8713 10.3695 23.5322C10.3414 23.5185 10.3205 23.5257 10.3068 23.5538C10.2896 23.5889 10.2634 23.5891 10.2282 23.5545C9.99895 23.7034 9.81829 23.8151 9.6862 23.8897C9.55069 23.9713 9.43085 24.0475 9.32668 24.1184C9.22611 24.1997 9.12912 24.2914 9.03573 24.3936C8.9389 24.5028 8.81277 24.6542 8.65732 24.8478C8.50188 25.0414 8.37746 25.1893 8.28407 25.2915C8.19426 25.4041 8.11482 25.5044 8.04576 25.5924C7.98371 25.6838 7.91823 25.7823 7.84932 25.8877C7.78042 25.9932 7.68914 26.1355 7.57549 26.3148C7.46055 26.3543 7.33843 26.3729 7.20913 26.3706C7.07983 26.3683 6.95739 26.3519 6.84181 26.3216C6.72623 26.2912 6.62273 26.245 6.53131 26.1829C6.44349 26.1313 6.3835 26.0672 6.35134 25.9907C6.31984 25.984 6.29722 25.9946 6.28351 26.0227C6.27338 26.0613 6.25623 26.0964 6.23207 26.128C6.22098 26.0617 6.19943 25.999 6.16744 25.9399C6.13545 25.8808 6.10346 25.8217 6.07147 25.7626C6.03948 25.7035 6.01442 25.6391 5.99631 25.5694C5.97477 25.5067 5.97763 25.4386 6.00491 25.3649C6.03008 25.0642 6.18432 24.7396 6.46761 24.3911C6.7509 24.0426 7.15755 23.6195 7.68754 23.122C7.94731 22.875 8.16912 22.679 8.35296 22.5341C8.53681 22.3891 8.70514 22.267 8.85796 22.1678C9.0178 22.072 9.17601 21.9884 9.33258 21.9171C9.49617 21.8492 9.68588 21.7723 9.90172 21.6865C9.90499 21.662 9.89781 21.6411 9.88018 21.6238C9.85912 21.6135 9.85022 21.5961 9.85349 21.5716C9.58985 21.3994 9.38915 21.2317 9.25138 21.0688C9.11018 20.9129 8.98262 20.7201 8.86869 20.4906C8.94462 20.3885 8.97181 20.3062 8.95027 20.2435C8.92529 20.1878 8.90898 20.1233 8.90131 20.05C8.92157 19.973 8.95079 19.922 8.989 19.8972C9.02018 19.869 9.05317 19.846 9.08794 19.8282C9.12272 19.8104 9.15921 19.7891 9.19741 19.7643C9.23562 19.7395 9.27007 19.6867 9.30077 19.6061C9.37424 19.6159 9.44419 19.624 9.51064 19.6304C9.5841 19.6402 9.63961 19.5977 9.67718 19.503C9.73006 19.555 9.77928 19.5877 9.82483 19.6013C9.8774 19.6182 9.92466 19.6283 9.96662 19.6314C10.0156 19.6379 10.0646 19.6445 10.1135 19.651C10.1591 19.6646 10.2048 19.6956 10.2507 19.7441ZM13.3446 25.6117C13.2558 25.4553 13.1827 25.2935 13.1252 25.1263C13.0748 24.9625 13.0174 24.7953 12.9529 24.6247C12.892 24.4646 12.812 24.3081 12.7127 24.1553C12.6205 24.0059 12.4882 23.8673 12.3158 23.7396C12.2069 24.0516 12.1367 24.3999 12.1053 24.7845C12.081 25.1726 12.0581 25.5397 12.0369 25.8858C12.3137 25.9776 12.5654 25.9875 12.7918 25.9155C13.0253 25.847 13.2096 25.7457 13.3446 25.6117Z" fill="white"/>
<path d="M5.4739 33.6859C5.41582 33.6044 5.3365 33.5531 5.23596 33.5319C5.14321 33.5111 5.05069 33.4864 4.95837 33.4578C4.86606 33.4293 4.78653 33.3818 4.71978 33.3155C4.6604 33.2575 4.63871 33.1546 4.65471 33.0068C4.61744 32.9734 4.59447 32.9643 4.5858 32.9795C4.57671 33.0025 4.54052 33.02 4.47726 33.0322C4.4989 32.9238 4.49542 32.8454 4.46681 32.7969C4.4382 32.7483 4.41803 32.6885 4.40632 32.6175C4.47085 32.4411 4.57678 32.2944 4.72409 32.1773C4.87878 32.0685 5.04452 31.9721 5.22131 31.8879C5.39768 31.8116 5.57751 31.7433 5.7608 31.6831C5.94367 31.6306 6.10335 31.5729 6.23985 31.5101C6.27105 31.5118 6.28189 31.528 6.27236 31.5588C6.27106 31.5822 6.26977 31.6056 6.26847 31.629C6.34864 31.5943 6.43595 31.5718 6.53042 31.5614C6.63313 31.5436 6.71719 31.5091 6.78262 31.4579C7.25373 31.7109 7.74349 31.9806 8.25188 32.2669C8.76807 32.5537 9.28816 32.8407 9.81215 33.1279C10.3435 33.4234 10.8751 33.7149 11.4069 34.0025C11.946 34.2984 12.4741 34.5819 12.9912 34.8531C12.9011 35.0672 12.7958 35.2726 12.6754 35.4694C12.5623 35.6744 12.4309 35.8588 12.2809 36.0227C12.131 36.1865 11.9592 36.3218 11.7656 36.4284C11.5792 36.5433 11.368 36.6138 11.1318 36.6398C11.0859 36.6216 11.0713 36.6012 11.0882 36.5787C11.1051 36.5562 11.0984 36.5362 11.0681 36.5189C11.0191 36.5553 10.9829 36.5729 10.9595 36.5716C10.9435 36.5785 10.924 36.5774 10.901 36.5683C10.8859 36.5597 10.8627 36.5545 10.8315 36.5528C10.8003 36.551 10.7563 36.5682 10.6995 36.6041C10.7095 36.5656 10.7032 36.5378 10.6807 36.5209C10.6659 36.5045 10.6674 36.4772 10.6852 36.439C10.5738 36.472 10.4874 36.4789 10.4258 36.4599C10.3643 36.4408 10.3071 36.4142 10.2542 36.38C10.2091 36.3462 10.156 36.3159 10.0949 36.289C10.0412 36.2704 9.96275 36.2739 9.85961 36.2994C9.86134 36.2682 9.85483 36.2444 9.8401 36.2279C9.83273 36.2197 9.82146 36.2113 9.80629 36.2026C9.79112 36.1939 9.77616 36.1814 9.76143 36.1649C9.75406 36.1567 9.75514 36.1372 9.76467 36.1064C9.56056 36.1186 9.35341 36.1149 9.14323 36.0955C8.94084 36.0765 8.73066 36.057 8.51268 36.0371C8.30249 36.0177 8.08408 36.0056 7.85743 36.0008C7.63078 35.9961 7.39504 36.0144 7.1502 36.0556C7.32665 36.4018 7.56527 36.685 7.86607 36.905C8.16643 37.1329 8.50449 37.316 8.88024 37.4541C9.25556 37.6001 9.65991 37.7164 10.0933 37.8029C10.5262 37.8973 10.967 37.9921 11.4155 38.0874C11.4966 38.1779 11.5982 38.2501 11.7204 38.3038C11.8422 38.3653 11.9686 38.4153 12.0994 38.4539C12.2299 38.5002 12.3606 38.5426 12.4914 38.5812C12.6297 38.628 12.7517 38.6856 12.8575 38.754C12.8341 38.8936 12.7847 39.0082 12.7093 39.0979C12.6413 39.1959 12.562 39.2854 12.4715 39.3664C12.3887 39.4479 12.3096 39.5335 12.2342 39.6233C12.1589 39.713 12.1056 39.8274 12.0744 39.9665C11.9124 40.0671 11.7546 40.1601 11.6012 40.2455C11.4556 40.3313 11.2923 40.3849 11.1111 40.4061C11.0357 40.355 10.9519 40.3152 10.8596 40.2866C10.7672 40.258 10.6751 40.2255 10.5833 40.1891C10.491 40.1606 10.4071 40.1207 10.3317 40.0696C10.2563 40.0185 10.1936 39.9485 10.1438 39.8597C9.91105 39.8233 9.69457 39.7761 9.49435 39.7181C9.29413 39.6601 9.09759 39.6061 8.90473 39.5563C8.71188 39.5065 8.511 39.4602 8.30212 39.4174C8.09323 39.3745 7.86376 39.3501 7.61371 39.344C7.39138 39.2613 7.16168 39.1704 6.92461 39.0712C6.69534 38.9724 6.48038 38.8979 6.27972 38.8477C6.17092 38.693 6.03308 38.568 5.86622 38.4727C5.69936 38.3774 5.53271 38.2782 5.36628 38.1751C5.33724 38.1344 5.33073 38.1105 5.34676 38.1036C5.3706 38.0971 5.38814 38.0629 5.3994 38.0009C5.32876 38.0048 5.28282 37.9866 5.26158 37.9463C5.2477 37.9142 5.19288 37.9151 5.09712 37.9489C5.04205 37.8129 4.96662 37.6913 4.87083 37.5843C4.77503 37.4773 4.68769 37.359 4.60879 37.2294C4.52946 37.1077 4.47872 36.964 4.45659 36.7985C4.44182 36.6412 4.48836 36.4364 4.59622 36.1842C4.89819 35.8175 5.24091 35.4922 5.62438 35.2083C6.00784 34.9243 6.45416 34.7065 6.96332 34.5547C6.94424 34.4754 6.89677 34.4141 6.82093 34.3708C6.74508 34.3274 6.66512 34.2878 6.58104 34.2519C6.49696 34.2159 6.42068 34.1804 6.3522 34.1453C6.28372 34.1102 6.25121 34.0615 6.25466 33.9991C6.18532 33.9796 6.12075 33.9447 6.06093 33.8944C6.00849 33.8524 5.95214 33.8102 5.89189 33.7677C5.83945 33.7257 5.77877 33.691 5.70986 33.6638C5.64052 33.6443 5.56187 33.6516 5.4739 33.6859Z" fill="white"/>
<path d="M4.86322 46.1376C4.89441 46.0113 4.95167 45.901 5.03498 45.8065C5.11576 45.7046 5.20899 45.615 5.31466 45.5376C5.4178 45.4529 5.52843 45.3779 5.64655 45.3128C5.76953 45.2378 5.88512 45.1653 5.99331 45.0954C6.09682 45.06 6.17833 45.057 6.23783 45.0862C6.30473 45.1129 6.3692 45.1445 6.43123 45.1811C6.49922 45.356 6.56828 45.5099 6.63843 45.6428C6.70858 45.7757 6.77746 45.9049 6.84509 46.0304C6.91271 46.156 6.97664 46.2827 7.03687 46.4107C7.10449 46.5363 7.16481 46.6766 7.21783 46.8319C7.48489 46.8645 7.73834 46.8936 7.97817 46.919C8.2254 46.9419 8.46027 46.9649 8.68279 46.988C8.88278 46.9692 9.07176 46.9666 9.24974 46.9801C9.43764 46.9985 9.61319 47.017 9.77638 47.0356C9.94697 47.0516 10.1113 47.0615 10.2695 47.0653C10.435 47.0666 10.6016 47.0468 10.7693 47.0061C11.0584 47.0064 11.3215 47.0033 11.5586 46.9966C11.8057 46.9948 12.0871 46.9606 12.4028 46.8941C12.2625 46.6283 12.1412 46.4179 12.0387 46.263C11.9437 46.1056 11.8651 45.9962 11.8029 45.9349C11.7598 45.7845 11.749 45.6561 11.7704 45.5497C11.7944 45.4507 11.8345 45.3628 11.8908 45.2858C11.947 45.2088 12.0169 45.1354 12.1004 45.0656C12.1839 44.9958 12.2686 44.9173 12.3544 44.8302C12.431 44.8371 12.5297 44.8117 12.6503 44.754C12.7783 44.6937 12.8593 44.6166 12.8932 44.5224C12.9282 44.5765 12.9914 44.6045 13.0828 44.6063C13.1816 44.6056 13.2494 44.5865 13.2862 44.5492C13.3661 44.6623 13.4337 44.7878 13.4891 44.9257C13.5518 45.0611 13.6096 45.1941 13.6625 45.3247C13.7252 45.4601 13.7855 45.5881 13.8432 45.7088C13.9083 45.8269 13.9855 45.9202 14.075 45.9887C14.221 46.3681 14.3722 46.7623 14.5283 47.1713C14.687 47.5877 14.838 47.9695 14.9814 48.3168C14.9825 48.4651 15.0121 48.6242 15.0701 48.7942C15.1307 48.9717 15.179 49.1492 15.2148 49.3268C15.2533 49.5118 15.2582 49.6835 15.2297 49.8418C15.2038 50.0076 15.1072 50.1479 14.94 50.2627C14.9631 50.3787 14.9613 50.4701 14.9346 50.537C14.9105 50.6113 14.8676 50.6672 14.8061 50.7047C14.752 50.7397 14.6831 50.7674 14.5992 50.7877C14.5253 50.813 14.4514 50.8382 14.3774 50.8635C14.2483 50.7755 14.1226 50.6492 14.0004 50.4845C13.888 50.3248 13.7768 50.144 13.6666 49.9422C13.5638 49.7379 13.4646 49.52 13.369 49.2884C13.2834 49.0618 13.199 48.8388 13.1158 48.6195C12.8592 48.6659 12.5482 48.6978 12.1827 48.7153C11.8271 48.7376 11.4739 48.755 11.1232 48.7675C10.7798 48.7774 10.4698 48.7883 10.1932 48.8002C9.92652 48.817 9.75746 48.8417 9.68605 48.8743C9.49076 48.8585 9.32513 48.8449 9.18916 48.8335C9.05572 48.8295 8.92967 48.823 8.81102 48.814C8.69489 48.8124 8.5775 48.8071 8.45884 48.7981C8.35011 48.7939 8.2228 48.7837 8.07691 48.7675L8.33442 49.5216C8.25815 49.5642 8.21406 49.6164 8.20216 49.6782C8.19026 49.7401 8.18331 49.8044 8.18133 49.8711C8.17935 49.9378 8.16745 49.9997 8.14563 50.0567C8.13373 50.1185 8.09081 50.1621 8.01688 50.1873C8.02788 50.3404 8.00272 50.4481 7.94141 50.5103C7.8801 50.5725 7.8013 50.6076 7.70501 50.6158C7.61863 50.6287 7.52098 50.6208 7.41207 50.592C7.30567 50.5705 7.21037 50.5453 7.12616 50.5162C7.11822 50.4446 7.07828 50.3881 7.00633 50.3466C6.94177 50.3026 6.87109 50.2649 6.79427 50.2333C6.75063 50.0088 6.68237 49.7968 6.5895 49.5974C6.49663 49.3979 6.41251 49.212 6.33713 49.0396C6.31712 49.0052 6.28989 48.998 6.25544 49.018C6.2284 49.0355 6.20369 49.0357 6.18133 49.0185C6.177 48.7641 6.12579 48.5174 6.02769 48.2785C5.93211 48.0469 5.81183 47.8156 5.66685 47.5844C5.53178 47.3581 5.3905 47.1257 5.24299 46.8871C5.08809 46.651 4.9615 46.4012 4.86322 46.1376Z" fill="white"/>
<path d="M15.025 53.2754C15.0678 53.2292 15.0996 53.1821 15.1204 53.134C15.1523 53.0869 15.1846 53.0342 15.2173 52.9761C15.264 52.8859 15.3192 52.7936 15.3828 52.6993C15.4465 52.6051 15.5351 52.5102 15.6488 52.4147C15.7187 52.3764 15.7731 52.3562 15.8121 52.3541C15.8571 52.3469 15.8961 52.3447 15.9291 52.3476L16.1208 52.2478L16.2338 52.3824C16.2681 52.4353 16.3053 52.4857 16.3455 52.5336C16.3907 52.5874 16.4334 52.6382 16.4736 52.6861C16.6645 52.9134 16.8695 53.1392 17.0884 53.3634C17.3073 53.5876 17.5343 53.8153 17.7693 54.0465C18.0363 54.2915 18.3119 54.565 18.5962 54.867C18.6871 54.8416 18.7441 54.8244 18.767 54.8153C18.795 54.8122 18.826 54.8066 18.86 54.7985L18.9967 54.8519C19.1183 54.9845 19.1807 55.0953 19.1841 55.1843C19.1934 55.2683 19.1927 55.3403 19.1819 55.4004C19.3245 55.5459 19.4727 55.6918 19.6263 55.8383C19.7859 55.9797 19.9505 56.1271 20.1201 56.2805C20.351 56.4947 20.5844 56.7118 20.8204 56.932C21.0563 57.1521 21.2722 57.3789 21.4682 57.6122C21.5536 57.7139 21.631 57.8121 21.7004 57.9069C21.7698 58.0016 21.8337 58.0959 21.8921 58.1897L21.9017 58.3652C21.88 58.4243 21.8662 58.4869 21.8605 58.5529C21.8547 58.619 21.854 58.691 21.8583 58.769C21.8619 58.919 21.845 59.0811 21.8077 59.2553C21.7754 59.4355 21.6445 59.6016 21.415 59.7535L21.2876 59.784C21.2435 59.7802 21.1945 59.7704 21.1404 59.7546L20.9484 59.7628L20.8655 59.6641C20.8152 59.6043 20.7716 59.5644 20.7345 59.5446C20.7034 59.5197 20.6613 59.4939 20.6081 59.4671C20.5761 59.4532 20.5415 59.4363 20.5044 59.4164C20.4733 59.3916 20.4367 59.3662 20.3946 59.3403C20.3453 59.2695 20.3056 59.2162 20.2754 59.1803C20.2453 59.1444 20.2101 59.1025 20.1699 59.0546C20.0192 58.8752 19.8439 58.6908 19.6441 58.5015C19.4443 58.3122 19.2466 58.1314 19.0508 57.9592C18.9123 57.8307 18.7788 57.7081 18.6503 57.5916C18.5278 57.47 18.4153 57.3604 18.3129 57.2628C18.1071 57.3336 17.9243 57.3954 17.7645 57.448C17.6046 57.5006 17.4423 57.5503 17.2774 57.5969C17.1125 57.6436 16.9472 57.6957 16.7814 57.7534C16.6215 57.806 16.4492 57.8742 16.2645 57.958C16.0965 57.9766 15.9416 58.0047 15.7997 58.0423C15.6638 58.0748 15.5204 58.1289 15.3697 58.2045C15.1926 58.2002 15.0267 58.2274 14.8719 58.286C14.7221 58.3506 14.5927 58.4031 14.4839 58.4435L14.3191 58.5207C14.2421 58.514 14.1865 58.5147 14.1526 58.5228C14.1236 58.537 14.0841 58.5446 14.0341 58.5458C13.9413 58.5932 13.8464 58.6321 13.7495 58.6624C13.7095 58.6756 13.6666 58.6913 13.6206 58.7095C13.5807 58.7226 13.5542 58.7397 13.5413 58.7608C13.4655 58.8041 13.3995 58.8289 13.3435 58.8351C13.3077 58.8652 13.2692 58.8924 13.2283 58.9165C13.1874 58.9407 13.1465 58.9649 13.1056 58.989C13.0536 59.0123 13.0072 59.0359 12.9663 59.0601C12.9314 59.0792 12.904 59.1074 12.8841 59.1445C12.8753 59.1825 12.8664 59.2205 12.8575 59.2586C12.8487 59.2966 12.8313 59.3367 12.8055 59.3788C12.8036 59.4008 12.8072 59.4233 12.8163 59.4463C12.8254 59.4693 12.8289 59.4918 12.827 59.5138C12.8253 59.5968 12.8391 59.6618 12.8683 59.7087L12.836 59.8889C12.6508 60.1056 12.4556 60.2134 12.2506 60.2122C12.0225 60.2201 11.803 60.0984 11.592 59.8472L11.4954 59.714C11.5021 59.637 11.5089 59.5904 11.5159 59.5744C11.4946 59.5005 11.4778 59.438 11.4656 59.387C11.4474 59.3411 11.4467 59.2856 11.4635 59.2205C11.4654 59.1985 11.4588 59.1785 11.4437 59.1605C11.4347 59.1376 11.4311 59.1151 11.433 59.0931C11.4007 59.0182 11.3814 58.9527 11.3752 58.8967L11.3461 58.7528C11.411 58.7085 11.4554 58.6764 11.4793 58.6563C11.5049 58.5531 11.544 58.454 11.5967 58.3587C11.6543 58.2695 11.7175 58.1807 11.7862 58.0924C11.8369 58.0192 11.8817 57.951 11.9204 57.8878C11.9642 57.8306 11.9945 57.7695 12.0113 57.7044C12.42 57.3407 12.8026 57.0857 13.1591 56.9392C13.5216 56.7878 13.8827 56.6528 14.2424 56.5344C14.4362 56.4736 14.6305 56.4074 14.8253 56.3356C15.0201 56.2638 15.2128 56.1835 15.4035 56.0948L15.5851 56.1106C15.6562 56.1223 15.6997 56.1316 15.7158 56.1386C15.7935 56.0732 15.8809 56.0254 15.9778 55.995C16.0807 55.9596 16.1861 55.9272 16.294 55.8978C16.362 55.8815 16.4274 55.8622 16.4903 55.84C16.5583 55.8237 16.6127 55.8035 16.6537 55.7793C16.6185 55.7374 16.5828 55.7011 16.5467 55.6702C16.5216 55.6403 16.491 55.6099 16.4548 55.579C16.3716 55.5163 16.2998 55.4491 16.2395 55.3773C16.1943 55.3235 16.1646 55.2821 16.1505 55.2531C16.0863 55.2254 16.0337 55.1931 15.9925 55.1562C15.9574 55.1143 15.9222 55.0725 15.887 55.0306L15.7966 54.9229L15.7061 54.8152C15.6458 54.7434 15.5891 54.6941 15.536 54.6673C15.4657 54.5836 15.4204 54.5297 15.4003 54.5058C15.3802 54.4819 15.3576 54.455 15.3325 54.425L15.2421 54.3174L15.1516 54.2097C15.1114 54.1618 15.0692 54.1055 15.0249 54.0406C14.9866 53.9708 14.9578 53.8878 14.9384 53.7919L14.9575 53.6688C14.9931 53.5776 15.0014 53.5146 14.9822 53.4796L14.9262 53.3583L15.025 53.2754Z" fill="white"/>
<path d="M22.5897 62.1893C22.6221 62.0918 22.6332 62.0272 22.623 61.9957C22.7358 61.8954 22.8328 61.7915 22.9142 61.684C23.0061 61.573 23.0874 61.4655 23.1583 61.3613C23.222 61.2711 23.2822 61.1878 23.3388 61.1114C23.4024 61.0387 23.4677 60.9711 23.5347 60.9089C23.6671 60.9416 23.779 60.9374 23.8702 60.8963C23.972 60.8518 24.0545 60.8107 24.1177 60.7729C24.2464 60.83 24.3175 60.8883 24.3309 60.9478C24.3513 61.0109 24.3609 61.1036 24.3598 61.2259C24.3554 61.3202 24.3614 61.4285 24.3777 61.551C24.3976 61.6665 24.4576 61.7806 24.5579 61.8933C24.5396 61.9805 24.5266 62.066 24.5188 62.1498C24.511 62.2336 24.505 62.3226 24.5006 62.4169C24.4884 62.595 24.4692 62.7782 24.443 62.9667C24.4203 63.1481 24.3769 63.3102 24.3126 63.4528C24.1473 63.5701 23.9869 63.7206 23.8315 63.9043C23.683 64.0916 23.5466 64.2894 23.4223 64.4979C23.3086 64.703 23.2123 64.9082 23.1335 65.1136C23.0547 65.3191 23.0059 65.5003 22.9869 65.6573L22.9641 65.8563L23.2043 65.9529C23.4867 66.0184 23.7483 66.0646 23.9891 66.0913C24.2335 66.111 24.4711 66.1098 24.7019 66.0875C24.9327 66.0652 25.1637 66.0254 25.3949 65.9682C25.6296 65.904 25.8837 65.8191 26.1572 65.7133C26.4238 65.604 26.6854 65.4615 26.9421 65.2857C27.2024 65.103 27.4419 64.9008 27.6606 64.6793C27.8863 64.4613 28.0911 64.2326 28.275 63.9932C28.459 63.7539 28.6166 63.523 28.748 63.3006C28.9121 63.3056 29.0368 63.2422 29.1219 63.1102L29.16 62.9586C29.1569 62.9131 29.1625 62.8765 29.1767 62.8487C29.2015 62.8174 29.2279 62.7915 29.2561 62.7708C29.3936 62.6393 29.5723 62.5816 29.7923 62.5976C29.8748 62.7452 29.9432 62.8943 29.9977 63.0451C30.0592 63.1994 30.1102 63.3483 30.1508 63.492C30.0686 63.6869 30.0127 63.8645 29.9833 64.025C29.9574 64.1785 29.9367 64.3303 29.9214 64.4804C29.9095 64.6235 29.8925 64.7596 29.8704 64.8887C29.8551 65.0213 29.8135 65.1712 29.7456 65.3382C29.5693 65.5113 29.4157 65.6828 29.2848 65.8528C29.1644 66.0194 29.0387 66.1964 28.9077 66.3838L28.8281 66.4879C28.5926 66.6394 28.3535 66.7979 28.1108 66.9633C27.8787 67.1254 27.6817 67.2703 27.5198 67.398C27.4567 67.4184 27.3935 67.4475 27.3303 67.4853C27.274 67.5267 27.2177 67.5681 27.1614 67.6095C27.1368 67.6233 27.0981 67.6474 27.0454 67.6818C26.9996 67.7198 26.961 67.7439 26.9294 67.7541L26.7271 67.5321L26.499 67.8234L26.3107 67.7797L26.1108 67.8617C25.8085 68.058 25.5189 68.2038 25.2419 68.299C24.972 68.3978 24.6883 68.4633 24.391 68.4954C24.1007 68.5311 23.7826 68.5439 23.4368 68.5336C23.1015 68.52 22.7192 68.4955 22.2897 68.46C22.1613 68.3679 22.045 68.2952 21.9406 68.2418C21.8468 68.185 21.753 68.1282 21.6592 68.0715C21.5619 68.0216 21.4697 67.9701 21.3829 67.9169C21.296 67.8636 21.1971 67.7998 21.086 67.7254C21.0902 67.6486 21.0751 67.5838 21.0406 67.5311C21.0062 67.4783 20.9681 67.4413 20.9264 67.4199C20.8229 67.2792 20.7684 67.1284 20.7629 66.9677C20.7574 66.8069 20.7556 66.6304 20.7574 66.4383C20.7653 66.337 20.7698 66.234 20.7708 66.1292C20.7787 66.0279 20.7744 65.9248 20.758 65.8198L20.9986 65.864L20.8876 65.4122C20.8774 65.3807 20.8637 65.3474 20.8466 65.3123C20.8364 65.2807 20.828 65.2457 20.8214 65.2072L20.9228 65.009C21.1869 64.4245 21.4417 63.8923 21.6873 63.4125C21.9434 62.9292 22.2284 62.5353 22.5422 62.2308L22.5897 62.1893Z" fill="white"/>
<path d="M32.9464 71.4822C32.9068 71.4871 32.8738 71.4573 32.8472 71.3926C32.8213 71.3202 32.7911 71.2514 32.7568 71.1862L32.8853 71.1957C32.8435 71.0202 32.8394 70.8632 32.8732 70.7247C32.9153 70.579 32.9608 70.4414 33.0095 70.3118C33.0589 70.1744 33.0998 70.0443 33.1324 69.9214C33.1734 69.7912 33.1718 69.654 33.1277 69.5097C33.1649 69.536 33.1927 69.5302 33.2112 69.4924C33.238 69.4474 33.2577 69.394 33.2701 69.3323C33.2908 69.2633 33.2999 69.1935 33.2973 69.1228C33.3031 69.0449 33.3038 68.9823 33.2995 68.9349C33.4187 68.7009 33.515 68.4574 33.5886 68.2043C33.67 67.9518 33.7433 67.7026 33.8085 67.4568C33.8743 67.2031 33.9431 66.9614 34.0149 66.7317C34.0951 66.4948 34.1898 66.2747 34.2988 66.0712C34.4091 66.0637 34.5209 66.0877 34.6343 66.1431C34.7561 66.1912 34.8341 66.2479 34.8685 66.3132C35.1238 66.1441 35.3548 65.934 35.5614 65.6829C35.768 65.4319 35.9741 65.1886 36.1795 64.9531C36.3933 64.7105 36.6282 64.5007 36.8842 64.3238C37.1401 64.1469 37.4487 64.0522 37.81 64.0398C37.9872 64.1861 38.1869 64.3458 38.4091 64.5189C38.6318 64.6843 38.8089 64.8854 38.9402 65.1223C38.9996 65.1659 39.0549 65.2131 39.106 65.2638C39.1654 65.3074 39.2249 65.351 39.2843 65.3946L39.2713 65.5699C39.3729 65.6792 39.4536 65.8066 39.5133 65.9521C39.5814 66.0903 39.6369 66.2393 39.6799 66.3992C39.7313 66.5518 39.7785 66.7081 39.8215 66.8679C39.8645 67.0278 39.9162 67.1766 39.9765 67.3142C39.9574 67.3598 39.9465 67.4021 39.9436 67.441C39.9491 67.4728 39.9543 67.5084 39.9592 67.5479C39.9724 67.5802 39.9812 67.6201 39.9856 67.6674C39.9905 67.7069 39.9906 67.7579 39.986 67.8202C39.9243 68.2308 39.7631 68.5557 39.5025 68.795C39.2503 69.027 38.9468 69.2121 38.5919 69.3503C38.2453 69.4813 37.8768 69.5911 37.4864 69.6797C37.0965 69.7605 36.7409 69.8556 36.4194 69.965C36.4171 69.9962 36.4316 70.0129 36.4627 70.0152C36.5017 70.0181 36.5116 70.0423 36.4926 70.0879C36.7159 70.2455 36.8868 70.3717 37.0051 70.4667C37.1312 70.5622 37.2465 70.6451 37.3509 70.7155C37.4638 70.7787 37.585 70.8347 37.7145 70.8835C37.8519 70.9328 38.0393 70.9937 38.2768 71.0661C38.5143 71.1385 38.6978 71.1991 38.8274 71.2479C38.9653 71.2894 39.0879 71.3259 39.1953 71.3574C39.3032 71.381 39.4189 71.4053 39.5424 71.4301C39.6659 71.4549 39.832 71.4868 40.0406 71.5257C40.12 71.6178 40.1826 71.7243 40.2285 71.8452C40.2744 71.9661 40.3047 72.0858 40.3194 72.2044C40.3341 72.323 40.3297 72.4363 40.306 72.5442C40.2907 72.6449 40.2535 72.7244 40.1943 72.7827C40.1998 72.8145 40.2181 72.8315 40.2493 72.8338C40.2888 72.8289 40.3278 72.8318 40.3662 72.8424C40.3087 72.8774 40.2585 72.9206 40.2155 72.9723C40.1725 73.024 40.1296 73.0756 40.0866 73.1273C40.0436 73.1789 39.9931 73.2261 39.9351 73.2688C39.8849 73.3121 39.8205 73.3347 39.742 73.3368C39.4535 73.4251 39.0948 73.4024 38.666 73.2688C38.2372 73.1352 37.6934 72.9148 37.0346 72.6075C36.7088 72.458 36.4445 72.3249 36.2416 72.208C36.0387 72.0911 35.8629 71.9802 35.714 71.8752C35.5656 71.7623 35.4293 71.6465 35.3049 71.5276C35.1811 71.4009 35.0393 71.2533 34.8794 71.0848C34.8555 71.0909 34.8387 71.1053 34.8292 71.1281C34.8275 71.1515 34.8146 71.1662 34.7907 71.1722C34.7287 71.481 34.6476 71.7296 34.5475 71.918C34.4551 72.1071 34.3235 72.2971 34.1527 72.4881C34.0298 72.4555 33.9432 72.4608 33.893 72.5041C33.8506 72.548 33.7968 72.5871 33.7316 72.6214C33.6525 72.6312 33.5944 72.623 33.5571 72.5968C33.5193 72.5783 33.4857 72.5562 33.4563 72.5305C33.4268 72.5049 33.3935 72.4789 33.3563 72.4526C33.3191 72.4264 33.2573 72.414 33.171 72.4154C33.1528 72.3436 33.1344 72.2756 33.1156 72.2115C33.0974 72.1397 33.0374 72.1039 32.9356 72.1042C32.9641 72.0358 32.9762 71.978 32.9719 71.9306C32.9682 71.8755 32.9599 71.8279 32.9472 71.7878C32.9351 71.7399 32.923 71.692 32.9109 71.6441C32.9065 71.5968 32.9184 71.5428 32.9464 71.4822ZM37.2452 66.4304C37.133 66.5709 37.0099 66.6989 36.876 66.8143C36.7427 66.922 36.6088 67.0374 36.4743 67.1606C36.3482 67.2766 36.2327 67.4091 36.1276 67.558C36.0232 67.6991 35.9437 67.8734 35.8892 68.0809C36.2193 68.0661 36.5687 68.0019 36.9375 67.8882C37.3069 67.7667 37.6562 67.6516 37.9854 67.5428C37.9678 67.2516 37.8835 67.0143 37.7326 66.8308C37.5823 66.6395 37.4198 66.506 37.2452 66.4304Z" fill="white"/>
<path d="M46.4753 71.8266C46.3967 71.7862 46.3294 71.7298 46.2734 71.6575C46.2248 71.5829 46.1438 71.535 46.0304 71.5139C45.9797 71.4071 45.9168 71.2878 45.8417 71.156C45.7717 71.0144 45.6979 70.874 45.6204 70.7347C45.548 70.5857 45.4805 70.4392 45.4179 70.2951C45.3603 70.1413 45.3224 69.9976 45.3042 69.864C45.2976 69.7922 45.2996 69.7218 45.3103 69.6528C45.3284 69.5813 45.3439 69.5148 45.357 69.4532C45.3751 69.3817 45.382 69.3139 45.3778 69.2496C45.381 69.1829 45.3657 69.1222 45.3317 69.0675C45.374 69.0457 45.3928 69.015 45.3883 68.9755C45.3889 68.9261 45.4213 68.8992 45.4856 68.895C45.4852 68.7147 45.492 68.5443 45.5062 68.3838C45.5204 68.2234 45.5395 68.0655 45.5635 67.9101C45.5874 67.7547 45.6114 67.5993 45.6354 67.444C45.6645 67.2788 45.6813 67.1011 45.6859 66.9109C45.5213 66.8324 45.3877 66.7358 45.2853 66.621C45.1878 66.4963 45.1016 66.3681 45.0265 66.2363C44.9514 66.1045 44.8837 65.9703 44.8235 65.8338C44.7609 65.6898 44.6834 65.5505 44.591 65.4161C44.6374 65.2535 44.7106 65.1111 44.8108 64.9887C44.9087 64.8588 45.0236 64.744 45.1557 64.6442C45.2928 64.5346 45.4459 64.4362 45.6149 64.3492C45.7815 64.2547 45.958 64.153 46.1446 64.0439C46.4659 63.8177 46.7583 63.6296 47.0219 63.4794C47.2831 63.3217 47.5416 63.1814 47.7975 63.0583C48.051 62.9277 48.318 62.801 48.5986 62.6782C48.8768 62.5479 49.1948 62.3884 49.5528 62.1998C49.5674 62.2197 49.5821 62.2273 49.597 62.2225C49.6193 62.2154 49.6453 62.207 49.6751 62.1975C49.7141 62.2424 49.7634 62.2553 49.8229 62.2362C49.8157 62.2139 49.806 62.1965 49.7938 62.184C49.7867 62.1617 49.7807 62.1431 49.7759 62.1282C49.7908 62.1234 49.8106 62.1212 49.8353 62.1215C49.8674 62.1193 49.8922 62.1196 49.9094 62.1223C49.9341 62.1226 49.9527 62.1166 49.9652 62.1044C49.9753 62.0847 49.9707 62.0575 49.9513 62.0227C50.0907 62.1503 50.2478 62.2435 50.4225 62.3023C50.5949 62.3536 50.7786 62.3891 50.9735 62.4086C51.0024 62.4731 51.0179 62.5215 51.0201 62.5536C51.0296 62.5834 51.0354 62.6143 51.0375 62.6465C51.0373 62.6712 51.0431 62.7021 51.055 62.7393C51.0646 62.7691 51.0863 62.8113 51.1203 62.8661C51.0657 63.1051 50.9782 63.3055 50.8578 63.4672C50.7448 63.6265 50.6123 63.7634 50.4603 63.8778C50.3083 63.9922 50.1403 64.0953 49.9565 64.1871C49.78 64.2765 49.5974 64.372 49.4084 64.4737C49.2246 64.5655 49.0418 64.6733 48.86 64.7973C48.6782 64.9212 48.5097 65.0737 48.3545 65.2548C48.2878 65.2516 48.2296 65.2621 48.18 65.2862C48.1353 65.3005 48.0894 65.3235 48.0421 65.3551C47.9948 65.3866 47.94 65.4206 47.8778 65.457C47.8231 65.4909 47.7487 65.5148 47.6547 65.5286C47.6119 65.5997 47.5531 65.6596 47.4784 65.7082C47.4112 65.7543 47.3403 65.8017 47.2656 65.8503C47.329 65.9202 47.3702 65.9972 47.389 66.0815C47.4152 66.1633 47.4491 66.2304 47.4905 66.2827C47.8125 66.2123 48.1584 66.1013 48.5282 65.9498C48.8957 65.7909 49.2593 65.6455 49.619 65.5137C49.6384 65.5485 49.643 65.5758 49.6329 65.5954C49.6228 65.6151 49.6237 65.6435 49.6357 65.6807C49.7169 65.7038 49.7981 65.7394 49.8791 65.7872C49.9601 65.8351 50.041 65.8829 50.122 65.9308C50.2081 65.9688 50.2917 65.9994 50.373 66.0226C50.4519 66.0383 50.5348 66.0281 50.6217 65.992C50.6827 66.0545 50.7338 66.1242 50.7749 66.2013C50.8161 66.2784 50.8324 66.3675 50.8238 66.4687C50.706 66.6131 50.5932 66.7601 50.4853 66.9096C50.375 67.0516 50.2548 67.1886 50.1248 67.3206C50.0023 67.4501 49.8601 67.5696 49.6983 67.6789C49.5365 67.7883 49.3502 67.8727 49.1395 67.932C49.1023 67.944 49.0689 67.9547 49.0391 67.9643C49.0168 67.9714 48.9823 67.9661 48.9355 67.9483C48.8731 68.0093 48.7774 68.0564 48.6485 68.0896C48.5248 68.1129 48.4279 68.1562 48.358 68.2197C48.2419 68.2159 48.1132 68.2367 47.9719 68.282C47.838 68.325 47.713 68.3446 47.5969 68.3408C47.525 68.5772 47.4642 68.8223 47.4144 69.0762C47.3622 69.3227 47.3296 69.5793 47.3167 69.846C47.6361 69.7928 47.895 69.7302 48.0934 69.6583C48.2919 69.5865 48.4768 69.5107 48.6482 69.4311C48.8196 69.3515 48.9947 69.2708 49.1735 69.1888C49.3597 69.1044 49.5917 69.0218 49.8693 68.9409C50.0267 68.792 50.2196 68.6645 50.4481 68.5583C50.6816 68.4424 50.8918 68.3175 51.0786 68.1838C51.1602 68.1822 51.2377 68.2066 51.3113 68.2568C51.3825 68.2996 51.4511 68.3473 51.5172 68.4C51.5884 68.4428 51.6572 68.4781 51.7235 68.5061C51.7899 68.534 51.8617 68.5274 51.9387 68.4863C51.9878 68.5115 52.0245 68.549 52.0486 68.5987C52.0802 68.646 52.1069 68.6908 52.1286 68.733C52.1578 68.7729 52.1884 68.8041 52.2202 68.8267C52.2497 68.8419 52.293 68.8362 52.3501 68.8096C52.3019 69.1451 52.2135 69.4196 52.0851 69.6331C51.9641 69.8442 51.8064 70.0302 51.6118 70.1911C51.4223 70.3421 51.1971 70.4841 50.9362 70.617C50.6803 70.7401 50.3946 70.8851 50.0789 71.052C50.0018 71.0932 49.9312 71.1158 49.8669 71.1201C49.8077 71.1144 49.7483 71.1212 49.6888 71.1403C49.4924 71.2443 49.2551 71.3614 48.9769 71.4917C48.7062 71.6196 48.4246 71.7263 48.1321 71.812C47.8395 71.8976 47.5486 71.9499 47.2594 71.9689C46.9701 71.9878 46.7087 71.9404 46.4753 71.8266Z" fill="white"/>
<path d="M65.9442 60.0833C65.9382 60.1073 65.9233 60.1163 65.8993 60.1104C65.8753 60.1044 65.8534 60.0951 65.8336 60.0826C65.818 60.0634 65.8078 60.0431 65.803 60.0215C65.8024 59.9933 65.817 59.9702 65.847 59.9522C65.687 59.971 65.5558 59.9663 65.4533 59.9383C65.355 59.9037 65.2222 59.8796 65.055 59.866C65.0478 59.8336 65.0298 59.8037 65.001 59.7761C64.9656 59.7444 64.9356 59.7115 64.911 59.6774C64.8822 59.6499 64.8654 59.6253 64.8606 59.6037C64.8534 59.5714 64.8713 59.5504 64.9144 59.5408C64.8335 59.5079 64.7742 59.4702 64.7364 59.4277C64.6986 59.3852 64.6641 59.3448 64.6329 59.3065C64.6058 59.2616 64.5746 59.2233 64.5393 59.1916C64.5039 59.1598 64.4514 59.1404 64.3819 59.1333C64.29 58.8991 64.1576 58.6995 63.9848 58.5343C63.8055 58.3649 63.6355 58.2246 63.4747 58.1133C63.4531 58.0163 63.4053 57.9166 63.3315 57.8142C63.2619 57.7052 63.1806 57.6074 63.0876 57.5206C62.9946 57.4338 62.8987 57.359 62.7997 57.2962C62.6942 57.2292 62.6034 57.1901 62.5272 57.1788C62.5051 57.1555 62.5002 57.1339 62.5128 57.1141C62.5229 57.0835 62.5418 57.0538 62.5693 57.0251C62.3348 56.8114 62.0601 56.5954 61.7453 56.3771C61.4346 56.1521 61.1456 55.9224 60.8781 55.6878C60.6081 55.4424 60.3966 55.1925 60.2435 54.9381C60.0839 54.6794 60.0485 54.4071 60.1374 54.1212C60.3317 54.1797 60.5144 54.2124 60.6858 54.2194C60.8614 54.2198 61.0357 54.2148 61.2089 54.2044C61.3862 54.1874 61.5636 54.1705 61.7409 54.1535C61.9183 54.1365 62.1046 54.1345 62.3 54.1474C62.4475 54.2503 62.6118 54.3778 62.7929 54.5298C62.9783 54.6752 63.1606 54.8325 63.3399 55.0019C63.5235 55.1647 63.6983 55.3265 63.8645 55.4875C64.0348 55.6419 64.1755 55.7775 64.2865 55.8942C64.3237 55.9085 64.3614 55.9001 64.3997 55.8689C64.4314 55.8335 64.4719 55.8499 64.5211 55.9182C64.5964 55.6976 64.6791 55.4725 64.7693 55.2429C64.8571 55.0025 64.944 54.7709 65.03 54.5479C65.1137 54.3141 65.1865 54.0827 65.2485 53.8537C65.3148 53.6182 65.3595 53.3874 65.3826 53.1615C65.0911 52.921 64.8092 52.6726 64.5369 52.4165C64.2645 52.1604 63.9554 51.9549 63.6095 51.8001C63.6016 51.7396 63.583 51.6815 63.5536 51.6258C63.5241 51.5701 63.5196 51.5117 63.5399 51.4506C63.3631 51.3938 63.1943 51.3098 63.0336 51.1986C62.8663 51.0831 62.7247 50.9563 62.6089 50.818C62.4973 50.6731 62.4201 50.5177 62.3774 50.3518C62.3281 50.1817 62.333 50.0136 62.3921 49.8475C62.5718 49.8413 62.7552 49.8513 62.9422 49.8775C63.1292 49.9036 63.3194 49.9319 63.513 49.9622C63.7 49.9883 63.8825 50.007 64.0604 50.0182C64.2426 50.0228 64.4175 49.995 64.5852 49.9349C64.8286 50.0616 65.0766 50.1959 65.329 50.3376C65.5748 50.4751 65.8284 50.6222 66.0899 50.7789C66.349 51.0267 66.5953 51.2802 66.8287 51.5393C67.0596 51.7877 67.3229 52.0289 67.6186 52.2629C67.6445 52.3533 67.6898 52.4422 67.7546 52.5296C67.8129 52.6129 67.8744 52.6982 67.9392 52.7856C68.0016 52.8622 68.0598 52.9454 68.1138 53.0353C68.1679 53.1251 68.2024 53.2164 68.2175 53.3093C68.3266 53.3415 68.4177 53.3947 68.4909 53.4689C68.5617 53.5324 68.672 53.57 68.8218 53.5818C69.0347 53.6984 69.1894 53.8336 69.2861 53.9875C69.3803 54.1306 69.4413 54.2896 69.4691 54.4646C69.4944 54.6287 69.4907 54.8022 69.458 54.985C69.4228 55.157 69.3844 55.3269 69.3426 55.4947C69.2612 55.5356 69.1818 55.5731 69.1046 55.6073C69.0249 55.6308 68.9501 55.6758 68.88 55.7424L68.8224 55.6364C68.6067 55.6846 68.3949 55.7121 68.187 55.7189C67.9767 55.715 67.778 55.649 67.5909 55.521C67.5843 55.5168 67.5456 55.483 67.4748 55.4196C67.3975 55.352 67.3168 55.2822 67.2328 55.2104C67.1531 55.132 67.0778 55.0611 67.007 54.9977C66.9338 54.9235 66.8939 54.8843 66.8873 54.8801C66.7899 55.0773 66.7113 55.2958 66.6517 55.5356C66.592 55.7753 66.5444 56.018 66.5087 56.2637C66.4706 56.4987 66.4454 56.7279 66.4331 56.9514C66.4184 57.1641 66.4093 57.3388 66.4059 57.4754C66.4256 57.488 66.4712 57.5401 66.5427 57.6317C66.6141 57.7233 66.6879 57.8256 66.7641 57.9388C66.8337 58.0478 66.8893 58.1571 66.9308 58.2667C66.9764 58.3697 66.9771 58.4488 66.9328 58.5039C66.9742 58.5117 67.0089 58.5152 67.0371 58.5146C67.0587 58.5098 67.0884 58.5286 67.1261 58.5711C67.088 58.7042 67.0659 58.8336 67.0601 58.9595C67.0584 59.0787 67.0448 59.195 67.0191 59.3083C67.0001 59.4257 66.9517 59.5384 66.8739 59.6464C66.8069 59.7519 66.6857 59.8554 66.5103 59.9569C66.4641 59.9276 66.412 59.9222 66.3539 59.9409C66.2892 59.9553 66.229 59.9773 66.1733 60.0067C66.1218 60.0295 66.0757 60.0511 66.0349 60.0716C65.9942 60.092 65.964 60.0959 65.9442 60.0833Z" fill="white"/>
<path d="M73.4285 44.8703C73.4229 45.2172 73.3602 45.5237 73.2405 45.79C73.1208 46.0562 72.9627 46.2889 72.7663 46.4881C72.5711 46.6795 72.3491 46.8392 72.1003 46.9672C71.8528 47.0874 71.5939 47.1782 71.3237 47.2397C70.7879 47.2289 70.3159 47.137 69.9077 46.964C69.4917 46.7897 69.1182 46.5706 68.7871 46.3066C68.456 46.0427 68.1522 45.7552 67.8757 45.4442C67.6004 45.1255 67.3349 44.8202 67.0792 44.5282C67.1106 44.4777 67.1171 44.4352 67.0986 44.4008C67.0814 44.3586 67.0552 44.323 67.0201 44.2939C66.9862 44.2571 66.9523 44.2203 66.9184 44.1835C66.8857 44.139 66.8652 44.0924 66.8568 44.0437C66.792 44.0022 66.74 43.9547 66.7008 43.9013C66.6627 43.8402 66.6285 43.7796 66.5981 43.7197C66.5612 43.6508 66.5232 43.5897 66.4839 43.5362C66.4458 43.4751 66.395 43.4199 66.3314 43.3707C66.3278 43.2911 66.3108 43.2213 66.2804 43.1613C66.2512 43.0937 66.217 43.0331 66.1778 42.9797C66.1397 42.9186 66.1055 42.858 66.0751 42.798C66.0448 42.7381 66.0239 42.6677 66.0126 42.5869L65.862 42.5639C65.8107 42.3822 65.7446 42.2457 65.6638 42.1543C65.5829 42.0629 65.4774 41.9519 65.3471 41.8214C65.3524 41.7352 65.3586 41.669 65.3657 41.6227C65.3739 41.5686 65.3786 41.4863 65.3797 41.3759C65.259 41.2863 65.1725 41.2059 65.1202 41.1347C65.0678 41.0634 65.0119 40.964 64.9524 40.8364C65.0319 40.73 65.0894 40.6123 65.1249 40.4834C65.1527 40.3533 65.2289 40.2424 65.3535 40.1508C65.4474 40.1573 65.5249 40.1414 65.586 40.1034C65.6394 40.0641 65.6934 40.021 65.748 39.974C65.7949 39.9259 65.8457 39.8783 65.9003 39.8313C65.9549 39.7843 66.0258 39.7596 66.1131 39.7572C66.119 39.7185 66.1148 39.6942 66.1006 39.6841C66.0875 39.6663 66.0878 39.6387 66.1014 39.6012C66.1655 39.5952 66.2181 39.5875 66.2591 39.5779C66.3 39.5684 66.3371 39.5582 66.3704 39.5475C66.4048 39.5291 66.4425 39.5151 66.4835 39.5055C66.5257 39.4883 66.575 39.476 66.6314 39.4689C66.7181 39.5216 66.8132 39.5717 66.9166 39.6192C67.0123 39.6654 67.0724 39.7378 67.0968 39.8364C67.1586 39.8458 67.1969 39.828 67.2117 39.7828C67.2188 39.7365 67.2499 39.7136 67.3052 39.7141C67.3759 39.717 67.432 39.7374 67.4736 39.7754C67.8697 39.6147 68.282 39.4761 68.7108 39.3599C69.1318 39.2425 69.5409 39.0995 69.9381 38.931C70.0439 38.963 70.1526 38.9757 70.2642 38.969C70.3693 38.9535 70.475 38.9341 70.5813 38.9108C70.6888 38.8798 70.7957 38.8527 70.902 38.8294C71.0083 38.8061 71.1128 38.7945 71.2156 38.7944C71.3492 38.799 71.4921 38.8208 71.6442 38.8599C71.7886 38.8977 71.9267 38.9505 72.0587 39.018C72.1906 39.0856 72.3124 39.1675 72.4242 39.2636C72.5282 39.3585 72.6035 39.4609 72.6499 39.5707C72.7855 39.7179 72.8893 39.8919 72.9614 40.0925C73.0257 40.2921 73.1117 40.4791 73.2194 40.6536C73.2647 40.7712 73.2933 40.8941 73.3053 41.0224C73.3096 41.1495 73.3171 41.281 73.328 41.417C73.3744 41.5269 73.4179 41.656 73.4584 41.8045C73.4912 41.9518 73.5196 42.1023 73.5435 42.2561C73.5674 42.4099 73.5836 42.5626 73.5921 42.714C73.5928 42.8643 73.5766 42.9962 73.5435 43.1097C73.6014 43.403 73.6296 43.6839 73.628 43.9524C73.6265 44.2209 73.56 44.5269 73.4285 44.8703ZM69.2348 44.0752C69.4007 44.1796 69.5487 44.2971 69.6789 44.4276C69.8025 44.5493 69.9301 44.6715 70.0615 44.7943C70.1929 44.9171 70.3376 45.0302 70.4957 45.1334C70.6473 45.2276 70.8344 45.2958 71.0572 45.3377C71.2121 45.2033 71.3209 45.0342 71.3837 44.8304C71.4399 44.6177 71.4774 44.3982 71.4962 44.1719C71.5073 43.9444 71.5106 43.7157 71.5062 43.4859C71.5018 43.256 71.5132 43.0523 71.5404 42.8746C71.4708 42.864 71.4408 42.8278 71.4503 42.766C71.4689 42.4369 71.4262 42.1222 71.3219 41.8217C71.21 41.5201 71.0998 41.2069 70.9913 40.8821C70.9046 40.8293 70.8312 40.7667 70.7711 40.6943C70.711 40.6219 70.6159 40.5718 70.4858 40.544C70.4104 40.572 70.3484 40.5902 70.2997 40.5986C70.2522 40.5992 70.1821 40.5924 70.0894 40.5783C69.7807 40.7366 69.4529 40.8643 69.1061 40.9615C68.7516 41.0574 68.4129 41.1795 68.0899 41.3278C68.1262 41.3491 68.1601 41.3859 68.1916 41.4381C68.2231 41.4904 68.2077 41.5394 68.1454 41.5852C68.2191 41.6202 68.2679 41.6632 68.2917 41.7142C68.3077 41.7641 68.3111 41.8199 68.3016 41.8817C68.2934 41.9358 68.2729 41.9919 68.2403 42.0502C68.2089 42.1007 68.1703 42.1462 68.1246 42.1866C68.2996 42.49 68.4668 42.7921 68.6262 43.0931C68.7869 43.3864 68.9859 43.6618 69.2231 43.9193C69.2404 43.9615 69.2445 43.9858 69.2356 43.9924C69.2267 43.9989 69.2265 44.0265 69.2348 44.0752Z" fill="white"/>
<path d="M74.0566 32.0551C74.0802 32.1296 74.1056 32.2486 74.1328 32.412C74.0439 32.5713 73.9067 32.7335 73.7214 32.8987C73.5262 33.0588 73.314 33.2039 73.0847 33.3338C72.8457 33.4587 72.6032 33.56 72.3574 33.6378C72.1018 33.7106 71.8642 33.7366 71.6446 33.716C71.6372 33.7183 71.5372 33.7131 71.3447 33.7003C71.1498 33.6801 70.9043 33.6553 70.6083 33.6261C70.3048 33.5993 69.9705 33.5658 69.6054 33.5257C69.2329 33.4879 68.8678 33.4478 68.5102 33.4053C68.1526 33.3628 67.8271 33.3184 67.5338 33.2719C67.2306 33.2204 66.993 33.1686 66.8208 33.1166C66.6953 33.0826 66.5759 33.0548 66.4626 33.0333C66.3469 33.0044 66.2398 32.9768 66.1414 32.9506C65.9814 32.9111 65.8349 32.8756 65.702 32.8439C65.5592 32.8071 65.4302 32.7619 65.3149 32.7083C65.1898 32.6496 65.0772 32.5787 64.9771 32.4956C64.8696 32.4149 64.7662 32.3084 64.6669 32.1759C64.6759 32.0747 64.6921 31.9836 64.7156 31.9024C64.7316 31.8236 64.7611 31.7487 64.8042 31.6777L64.95 31.5946C64.9974 31.5632 65.0276 31.5291 65.0405 31.4922C65.0436 31.4503 65.0416 31.4181 65.0346 31.3958C65.0263 31.2919 65.0264 31.2017 65.035 31.1252C65.0337 31.0437 65.0239 30.9607 65.0054 30.8765C65.0406 30.8325 65.0771 30.7923 65.1147 30.7558C65.1499 30.7119 65.1815 30.6691 65.2093 30.6275C65.3781 30.4102 65.5478 30.2213 65.7182 30.0608C65.8887 29.9003 66.1084 29.8307 66.3774 29.8521L66.4967 29.802C66.5371 29.7483 66.5796 29.7143 66.6243 29.7002C66.669 29.686 66.7346 29.6734 66.8213 29.6624C66.8832 29.651 66.9526 29.6372 67.0295 29.6211C67.0965 29.5999 67.1674 29.5651 67.2423 29.5168L67.3069 29.4103C67.3288 29.2723 67.322 29.1474 67.2867 29.0357C67.2395 28.8867 67.1635 28.7633 67.0588 28.6653C66.954 28.5674 66.8516 28.4769 66.7516 28.3938C66.666 28.3307 66.5941 28.2716 66.5356 28.2163C66.4748 28.1536 66.4263 28.0911 66.3902 28.0288C66.1917 27.9196 66.0166 27.8193 65.8648 27.7281C65.7031 27.6317 65.5403 27.5317 65.3764 27.4279C65.0755 27.2281 64.7621 27.0405 64.4361 26.8651C64.1027 26.692 63.7262 26.59 63.3067 26.5589C63.2286 26.4935 63.173 26.4086 63.14 26.3044C63.107 26.2001 63.0963 26.0887 63.108 25.9703C63.1123 25.8542 63.1239 25.7358 63.1431 25.615C63.1509 25.588 63.1562 25.5658 63.1589 25.5486C63.1593 25.5239 63.1634 25.498 63.1712 25.4709C63.2531 25.445 63.317 25.3879 63.3628 25.2996C63.3808 25.253 63.3912 25.221 63.3939 25.2037C63.3966 25.1865 63.3994 25.1692 63.4021 25.152C63.4205 25.0806 63.4387 25.0216 63.4567 24.9749C63.4723 24.9208 63.5027 24.8743 63.5477 24.8355C63.7276 24.7048 63.8487 24.5435 63.9109 24.3517C63.9975 24.3407 64.0783 24.311 64.1531 24.2628C64.2205 24.2168 64.2868 24.1672 64.3518 24.1138C64.3769 24.0895 64.4031 24.0689 64.4306 24.052C64.4506 24.0375 64.4768 24.0169 64.5093 23.9902L64.5648 24.2431L64.8 24.1317C64.9195 24.0693 65.0646 24.0357 65.2351 24.0308C65.4033 24.0186 65.5404 24.0243 65.6463 24.0482C65.865 23.9626 66.0414 23.8985 66.1755 23.8561C66.3021 23.816 66.4236 23.7857 66.54 23.7652C66.6565 23.7448 66.7727 23.7366 66.8888 23.7409C66.9951 23.74 67.1123 23.748 67.2405 23.7647C67.7972 23.5557 68.336 23.4589 68.8571 23.4742C69.3759 23.4821 69.8696 23.5143 70.3382 23.5708C70.3974 23.5766 70.4529 23.5836 70.5046 23.5918C70.5564 23.6 70.607 23.6045 70.6564 23.6053C70.7047 23.6801 70.7543 23.7463 70.8053 23.8039C70.8563 23.8615 70.9099 23.9142 70.966 23.962C71.0441 24.0275 71.1147 24.0952 71.1779 24.1654C71.2336 24.2379 71.2756 24.3188 71.3039 24.4082C71.1564 24.8482 70.7647 25.1771 70.1289 25.3948C69.4907 25.605 68.6315 25.7254 67.5513 25.756C67.4976 25.7156 67.4346 25.711 67.3625 25.742L67.2396 25.7809L67.2638 25.8962C67.2756 25.9334 67.2899 25.9657 67.3068 25.9932C67.3237 26.0206 67.3643 26.0323 67.4286 26.0284C67.6754 26.2125 67.9366 26.4166 68.2124 26.6407C68.4784 26.8597 68.7368 27.0934 68.9875 27.3418C69.2308 27.5925 69.4541 27.8578 69.6574 28.1376C69.8509 28.4124 69.9937 28.695 70.0856 28.9854C70.3214 29.7303 70.1196 30.4129 69.4801 31.0332L69.3108 31.1974L69.525 31.2526C69.5693 31.2631 69.6567 31.2805 69.7873 31.3047C69.9081 31.3239 70.0487 31.3408 70.2091 31.3556C70.3671 31.3629 70.5276 31.3654 70.6908 31.3629C70.8515 31.353 70.9854 31.3229 71.0924 31.2726C71.2026 31.3361 71.324 31.396 71.4566 31.4523C71.5868 31.5013 71.7248 31.5231 71.8707 31.5179C71.9126 31.521 71.9511 31.513 71.9859 31.4937C72.0134 31.4768 72.0434 31.455 72.0759 31.4284C72.1304 31.4193 72.1723 31.4224 72.2018 31.4377C72.2312 31.453 72.2618 31.4719 72.2935 31.4947C72.3426 31.5201 72.3953 31.5444 72.4518 31.5675C72.5008 31.5929 72.5561 31.6123 72.6177 31.6256C72.6671 31.6263 72.7191 31.6222 72.7736 31.6131C72.8206 31.6064 72.8639 31.6009 72.9035 31.5966C72.9855 31.5706 73.0449 31.5641 73.0817 31.577C73.2617 31.602 73.4133 31.6278 73.5364 31.6543C73.6498 31.6758 73.7407 31.7044 73.8094 31.74C73.878 31.7756 73.9292 31.8209 73.963 31.8758C74.0018 31.9208 74.033 31.9806 74.0566 32.0551Z" fill="white"/>
<path d="M66.652 16.8413C66.6489 16.9297 66.6265 17.0146 66.585 17.096C66.5381 17.1717 66.5292 17.2654 66.5585 17.377C66.4834 17.4683 66.4022 17.576 66.3149 17.7C66.2165 17.8237 66.1209 17.9502 66.0278 18.0796C65.9238 18.2086 65.8199 18.3321 65.7163 18.45C65.6015 18.5676 65.4876 18.663 65.3745 18.7364C65.3124 18.7729 65.2478 18.801 65.1808 18.8208C65.1084 18.8348 65.0416 18.849 64.9803 18.8634C64.9079 18.8775 64.8436 18.9001 64.7872 18.9312C64.7255 18.9567 64.6771 18.9965 64.642 19.0505C64.6043 19.0215 64.5685 19.0175 64.5346 19.0384C64.4897 19.0589 64.4516 19.041 64.4205 18.9846C64.2574 19.0618 64.1003 19.1281 63.9491 19.1835C63.7979 19.239 63.6469 19.2889 63.4961 19.3334C63.3452 19.3778 63.1944 19.4222 63.0436 19.4666C62.8817 19.5107 62.7138 19.571 62.5397 19.6478C62.5388 19.8302 62.5082 19.9922 62.4479 20.1338C62.3766 20.275 62.2973 20.4076 62.21 20.5317C62.1227 20.6557 62.03 20.774 61.9321 20.8867C61.8284 21.0046 61.7354 21.134 61.6531 21.2748C61.4863 21.3021 61.3262 21.2964 61.1727 21.2578C61.0136 21.2246 60.8608 21.1694 60.7143 21.0924C60.5567 21.0149 60.4026 20.9183 60.2519 20.8024C60.0955 20.6919 59.9282 20.5754 59.7502 20.453C59.4088 20.2585 59.114 20.074 58.8659 19.8994C58.6121 19.7301 58.3751 19.5559 58.1547 19.3768C57.9287 19.2029 57.7004 19.0152 57.4699 18.8136C57.2336 18.6173 56.9539 18.3974 56.6309 18.1538C56.6427 18.1321 56.6433 18.1155 56.6326 18.1041C56.6166 18.087 56.598 18.067 56.5767 18.0441C56.6007 17.9897 56.5914 17.9396 56.5488 17.8939C56.5317 17.9098 56.5201 17.926 56.514 17.9424C56.4968 17.9584 56.4825 17.9717 56.4711 17.9823C56.4604 17.9709 56.45 17.9539 56.4397 17.9315C56.4241 17.9033 56.4139 17.8808 56.4089 17.864C56.3987 17.8416 56.3854 17.8273 56.369 17.8212C56.3469 17.8204 56.3242 17.8362 56.301 17.8685C56.3571 17.6881 56.3746 17.5063 56.3534 17.3231C56.3265 17.1453 56.2804 16.964 56.2151 16.7793C56.2612 16.7256 56.2984 16.691 56.3266 16.6754C56.3494 16.6541 56.375 16.6357 56.4031 16.6201C56.4256 16.6098 56.4511 16.5914 56.4797 16.5648C56.5026 16.5435 56.5316 16.5058 56.5666 16.4518C56.8062 16.3994 57.0247 16.3933 57.2223 16.4335C57.4146 16.4679 57.5948 16.5296 57.763 16.6184C57.9312 16.7073 58.096 16.8154 58.2574 16.9427C58.4134 17.0643 58.5775 17.1889 58.7499 17.3166C58.9113 17.4439 59.0867 17.5634 59.2762 17.6752C59.4657 17.7869 59.6754 17.8745 59.9054 17.9379C59.9308 17.9996 59.9651 18.0478 60.0081 18.0824C60.04 18.1167 60.0803 18.1486 60.1291 18.1779C60.1778 18.2073 60.2318 18.2424 60.2912 18.2832C60.3452 18.3182 60.3985 18.3754 60.4509 18.4546C60.5336 18.4631 60.6127 18.4908 60.6885 18.5377C60.7589 18.5788 60.8319 18.6229 60.9077 18.6698C60.9439 18.5826 60.9961 18.5126 61.0643 18.4597C61.1272 18.4011 61.1735 18.342 61.2033 18.2822C61.0025 18.0209 60.7548 17.7551 60.4603 17.4849C60.1601 17.22 59.8739 16.9528 59.6015 16.6834C59.6247 16.651 59.6474 16.6353 59.6695 16.636C59.6915 16.6368 59.7169 16.6239 59.7455 16.5973C59.7318 16.5139 59.7294 16.4253 59.7383 16.3317C59.7471 16.238 59.7559 16.1444 59.7648 16.0507C59.7626 15.9567 59.7546 15.8679 59.741 15.7845C59.7217 15.7065 59.6772 15.6358 59.6075 15.5725C59.6381 15.4907 59.6795 15.4148 59.7317 15.3447C59.7839 15.2747 59.8576 15.2221 59.9528 15.1867C60.1337 15.2318 60.3147 15.2714 60.4959 15.3054C60.6714 15.3448 60.8465 15.3952 61.0212 15.4567C61.1906 15.5124 61.3592 15.5902 61.527 15.6901C61.6949 15.79 61.8505 15.9226 61.9939 16.088C62.0205 16.1166 62.0445 16.1423 62.0658 16.1652C62.0818 16.1823 62.0916 16.2158 62.0954 16.2657C62.1772 16.2963 62.2606 16.3628 62.3454 16.4653C62.4192 16.5674 62.4996 16.6366 62.5868 16.6728C62.6328 16.7795 62.7064 16.8871 62.8076 16.9957C62.9034 17.0986 62.9743 17.2033 63.0203 17.31C63.2648 17.2744 63.5125 17.2251 63.7635 17.1621C64.0088 17.1045 64.2548 17.0247 64.5016 16.9229C64.3176 16.6566 64.1508 16.4489 64.0013 16.2999C63.8517 16.1509 63.7045 16.0158 63.5595 15.8946C63.4146 15.7734 63.2669 15.6493 63.1167 15.5224C62.961 15.3898 62.7876 15.215 62.5962 14.9982C62.3945 14.9192 62.197 14.7989 62.0037 14.6373C61.7994 14.4753 61.5969 14.3383 61.3964 14.2262C61.3603 14.153 61.3493 14.0725 61.3634 13.9846C61.3719 13.9019 61.3859 13.8195 61.4053 13.7373C61.4138 13.6547 61.4165 13.5774 61.4135 13.5054C61.4106 13.4334 61.3741 13.3714 61.304 13.3191C61.306 13.2639 61.3243 13.2148 61.359 13.1718C61.3884 13.1231 61.4175 13.0799 61.4465 13.0422C61.4701 12.9989 61.4854 12.9579 61.4923 12.9195C61.4935 12.8864 61.4699 12.8496 61.4216 12.8092C61.7457 12.7101 62.0317 12.6732 62.2795 12.6986C62.522 12.7182 62.7575 12.7818 62.9858 12.8894C63.2032 12.9965 63.4275 13.1399 63.6588 13.3194C63.8791 13.4986 64.132 13.6955 64.4174 13.9101C64.4874 13.9623 64.538 14.0166 64.5692 14.073C64.5893 14.129 64.6207 14.1798 64.6633 14.2255C64.841 14.359 65.048 14.5238 65.2842 14.7201C65.5152 14.9107 65.7317 15.1201 65.9337 15.3483C66.1356 15.5766 66.3068 15.8176 66.4471 16.0713C66.5873 16.325 66.6557 16.5817 66.652 16.8413Z" fill="white"/>
<path d="M55.3052 8.56982C55.3221 8.50765 55.3405 8.4508 55.3604 8.39926C55.3802 8.34773 55.3986 8.29088 55.4155 8.22871C55.481 8.1758 55.543 8.12098 55.6016 8.06426C55.6564 8.01435 55.7112 7.96444 55.766 7.91453C55.8131 7.87826 55.8439 7.85522 55.8584 7.8454C55.8728 7.83558 55.882 7.82726 55.8858 7.82044C55.8896 7.81363 55.8953 7.8034 55.903 7.78977C55.9 7.77913 55.9118 7.74996 55.9385 7.70224L56.0481 7.60242C56.1089 7.57378 56.1708 7.55918 56.2338 7.55862C56.2968 7.55806 56.3578 7.56091 56.417 7.56717C56.4383 7.56117 56.4645 7.56239 56.4955 7.57084C56.5304 7.57247 56.5585 7.57028 56.5798 7.56428L56.6791 7.45874L56.8235 7.5127C56.9547 7.5503 57.0612 7.59199 57.143 7.63778L57.2657 7.70647C57.3055 7.82725 57.3378 7.92144 57.3627 7.98906C57.3875 8.05667 57.4176 8.12279 57.4531 8.1874C57.4678 8.321 57.4672 8.41016 57.4511 8.45488C57.4312 8.50641 57.4166 8.55645 57.4074 8.60499C57.3714 8.70124 57.356 8.76873 57.3612 8.80744L57.4242 9.03074L57.25 9.05408L57.2537 9.31134C57.1376 9.3269 57.0514 9.33687 56.9953 9.34124C56.9391 9.34562 56.8897 9.35381 56.8472 9.36581C56.8009 9.38464 56.7473 9.40837 56.6865 9.43701C56.6257 9.46565 56.5273 9.51352 56.3912 9.58062L56.2248 9.66204L56.1319 9.51605C56.1161 9.48034 56.0696 9.42745 55.9924 9.3574C55.9046 9.29034 55.8304 9.23091 55.7699 9.17912C55.6731 9.08017 55.5793 8.99184 55.4885 8.91415C55.3938 8.84328 55.3311 8.76341 55.3003 8.67453L55.3052 8.56982Z" fill="white"/>
<path d="M47.9745 5.59292C47.9764 5.52852 47.9809 5.46894 47.9882 5.41418C47.9954 5.35941 48 5.29983 48.0019 5.23544C48.0531 5.16867 48.1005 5.10085 48.1442 5.03197C48.1858 4.97061 48.2273 4.90925 48.2689 4.8479C48.3063 4.80158 48.3308 4.77196 48.3426 4.75903C48.3543 4.7461 48.3612 4.73587 48.3633 4.72835C48.3655 4.72083 48.3686 4.70955 48.3729 4.6945C48.3674 4.68487 48.3721 4.65373 48.3869 4.60108L48.4701 4.47836C48.5225 4.43627 48.5792 4.40757 48.6403 4.39227C48.7014 4.37697 48.7614 4.36543 48.8204 4.35765C48.8397 4.34683 48.8654 4.34189 48.8976 4.34282C48.9319 4.33622 48.9587 4.32752 48.978 4.3167L49.0499 4.19081L49.2029 4.20944C49.3392 4.21526 49.4525 4.23084 49.5427 4.25619L49.6781 4.29421C49.7451 4.40229 49.7987 4.48629 49.8386 4.5462C49.8786 4.60612 49.9234 4.66333 49.973 4.71783C50.0187 4.84426 50.0389 4.93109 50.0338 4.97833C50.0265 5.03309 50.024 5.08515 50.0264 5.13451C50.014 5.23651 50.0148 5.30572 50.029 5.34215L50.1426 5.54446L49.9787 5.60798L50.0426 5.85719C49.9333 5.89954 49.8519 5.92942 49.7983 5.94683C49.7447 5.96425 49.6987 5.98377 49.6601 6.00541C49.6195 6.03457 49.573 6.07019 49.5206 6.11228C49.4682 6.15437 49.3837 6.22397 49.2672 6.32108L49.1244 6.43924L49 6.31908C48.9762 6.28806 48.9186 6.24755 48.8272 6.19752C48.7261 6.15291 48.6401 6.11252 48.5691 6.07635C48.4518 6.00284 48.3399 5.93896 48.2334 5.88471C48.1248 5.83798 48.0451 5.77503 47.9943 5.69585L47.9745 5.59292Z" fill="white"/>
</svg>
