<svg width="79" height="79" viewBox="0 0 79 79" fill="none" xmlns="http://www.w3.org/2000/svg">
<path d="M28.536 35.6385V37.8585H27.996V36.1785H20.748V39.5385H28.536V43.9785H18.744V41.7585H19.284V43.4385H26.532V40.0785H18.744V35.6385H28.536ZM33.6772 36.1785V43.4385H35.8372V43.9785H29.5132V43.4385H31.6732V36.1785H29.5132V35.6385H35.8372V36.1785H33.6772ZM46.8223 43.4385H48.1543V43.9785H45.2263V43.4385H46.1503L43.6303 40.0785H39.6463V43.4385H40.8463V43.9785H36.4543V43.4385H37.6423V36.1785H36.4543V35.6385H40.8463V36.1785H39.6463V39.5385H43.6183L45.7063 36.1785H44.7343V35.6385H47.6623V36.1785H46.3543L44.0983 39.7905L46.8223 43.4385ZM60.646 36.1785H59.458V43.9785H48.466V43.4385H49.654V36.1785H48.466V35.6385H52.846V36.1785H51.658V43.4385H58.918V36.1785H57.718V35.6385H60.646V36.1785Z" fill="#A410D8"/>
<path d="M31.2982 7.1757C31.5632 7.22463 31.7942 7.34312 31.9915 7.53116C32.1888 7.71921 32.3306 7.91405 32.4168 8.11568C32.4559 8.30055 32.4552 8.45374 32.4145 8.57525C32.3838 8.7016 32.3307 8.8109 32.2551 8.90316C32.1821 9.0028 32.099 9.08526 32.0059 9.15054C31.9153 9.2232 31.8258 9.2872 31.7375 9.34254L31.5522 9.3446C31.5025 9.32045 31.4541 9.29999 31.407 9.28322C31.3525 9.269 31.3016 9.25351 31.2545 9.23674C31.1909 9.2918 31.1619 9.35142 31.1676 9.4156C31.1658 9.48232 31.1641 9.54905 31.1624 9.61578C31.1683 9.70466 31.1706 9.79481 31.1691 9.88625C31.1676 9.97768 31.1588 10.0717 31.1426 10.1682C31.173 10.2321 31.1897 10.2924 31.1928 10.3492C31.1959 10.406 31.1964 10.4554 31.1944 10.4975C31.2515 10.5191 31.2911 10.526 31.3133 10.5184C31.3306 10.5206 31.364 10.5215 31.4134 10.521C31.4355 10.5133 31.4577 10.5056 31.4798 10.498C31.5045 10.4977 31.5329 10.4962 31.565 10.4933C31.7038 10.5363 31.8006 10.5772 31.8554 10.6161C31.9054 10.665 31.959 10.7125 32.0164 10.7588C32.0737 10.8051 32.1248 10.8453 32.1697 10.8794C32.2145 10.9135 32.2618 10.9426 32.3115 10.9668L32.475 11.0094L32.4545 11.1653C32.4449 11.1852 32.4439 11.2062 32.4515 11.2284C32.4617 11.2579 32.4905 11.2934 32.5379 11.3349C32.5933 11.4232 32.6212 11.4921 32.6218 11.5415L32.6456 11.682C32.6049 11.8035 32.5835 11.873 32.5812 11.8903L32.5087 12.0393C32.3542 12.1424 32.1973 12.2503 32.038 12.3633C31.8812 12.4836 31.7281 12.6027 31.5787 12.7205C31.4293 12.8383 31.2762 12.9573 31.1194 13.0777C30.9627 13.198 30.8033 13.311 30.6414 13.4166C30.6002 13.4887 30.5477 13.5399 30.4838 13.5703C30.4151 13.6106 30.3524 13.6446 30.2959 13.6724C30.2442 13.6903 30.1975 13.7106 30.1558 13.7333C30.114 13.756 30.0872 13.7859 30.0752 13.8231C29.965 13.9108 29.856 13.9899 29.748 14.0602C29.547 14.1959 29.2796 14.3669 28.9458 14.5732C28.6121 14.7795 28.2265 14.979 27.7888 15.1717L27.5601 15.2631C27.5132 15.2711 27.4676 15.2827 27.4233 15.298C27.3816 15.3207 27.3386 15.3397 27.2943 15.3551C26.9103 15.4878 26.6147 15.4578 26.4075 15.2649C26.3209 15.2535 26.2379 15.2285 26.1584 15.1898C26.0814 15.1586 26.0082 15.126 25.9386 15.0922C25.889 15.0681 25.8442 15.0463 25.8045 15.027C25.7673 15.0151 25.7351 15.0055 25.7078 14.9984L25.5886 14.9405C25.4461 14.7913 25.3713 14.6229 25.3643 14.4352C25.378 14.3313 25.4081 14.263 25.4547 14.2304C25.5012 14.1978 25.5478 14.1651 25.5944 14.1325L25.7116 14.0052C25.8101 13.9794 25.8852 13.9575 25.9369 13.9397C25.9812 13.9243 26.0329 13.9065 26.092 13.886C26.3135 13.8095 26.5668 13.7053 26.8519 13.5737C27.1322 13.452 27.4148 13.3129 27.6997 13.1566C27.9871 13.0076 28.262 12.8464 28.5244 12.673C28.7894 12.507 29.0149 12.3464 29.201 12.1911C29.2447 12.1264 29.3082 12.059 29.3914 11.9888C29.411 11.9738 29.4379 11.9439 29.4719 11.899C29.4441 11.8425 29.4237 11.7834 29.4107 11.7218C29.4002 11.6676 29.3934 11.612 29.3903 11.5553C29.3849 11.5158 29.3782 11.4726 29.3703 11.4258C29.3575 11.3888 29.3472 11.347 29.3393 11.3001C29.4305 11.0619 29.429 10.8186 29.3348 10.5701L29.3519 10.4402C29.3712 10.4004 29.3818 10.3472 29.3835 10.2805C29.3804 10.2237 29.3612 10.1683 29.326 10.1143L29.2358 9.99674C29.0932 10.0626 28.9543 10.1271 28.8192 10.1904C28.6792 10.2636 28.5318 10.3394 28.377 10.4177C28.183 10.5261 27.9865 10.6271 27.7874 10.7207C27.5835 10.8243 27.3671 10.9157 27.1382 10.9948L26.7062 11.1442L26.7715 11.01L26.6458 11.0411L26.651 10.8409C26.5916 10.8366 26.5483 10.8309 26.5211 10.8238C26.489 10.8266 26.4593 10.8245 26.4321 10.8174L26.3162 10.7334C26.2717 10.724 26.2257 10.6986 26.1783 10.6571C26.1334 10.6231 26.0933 10.5667 26.0578 10.488L26.0527 10.3658L26.3435 9.52126L26.3793 9.40968L26.5016 9.40461C26.6444 9.36348 26.7722 9.30276 26.8849 9.22244C26.9389 9.18725 26.9953 9.14709 27.0541 9.10197C27.1154 9.06422 27.1793 9.03386 27.2458 9.01088C27.4128 8.92008 27.5515 8.84318 27.662 8.78018C27.775 8.72456 27.8881 8.66895 28.0011 8.61333C28.1533 8.52763 28.3018 8.44321 28.4467 8.36006C28.5867 8.28685 28.7142 8.20143 28.8293 8.10379C28.9079 8.06832 28.9546 8.04803 28.9694 8.04293C28.9867 8.04521 29.0028 8.04379 29.0175 8.03869C29.0914 8.01316 29.1614 7.97655 29.2276 7.92887C29.2937 7.88119 29.3562 7.83479 29.415 7.78966C29.4466 7.73742 29.462 7.6866 29.4615 7.63719C29.4635 7.59517 29.4642 7.54945 29.4637 7.50005C29.4606 7.44325 29.4648 7.38391 29.4765 7.32201C29.4833 7.27005 29.4963 7.21185 29.5153 7.1474L29.4353 6.95187C29.4967 6.91413 29.5261 6.89156 29.5235 6.88418C29.5235 6.88418 29.5272 6.8829 29.5346 6.88035C29.5142 6.82128 29.5061 6.76207 29.5104 6.70273C29.5073 6.64594 29.5054 6.59284 29.5049 6.54343C29.5094 6.50879 29.5116 6.47912 29.5113 6.45442C29.511 6.42971 29.5071 6.40628 29.4994 6.38413C29.3796 6.27676 29.3088 6.13178 29.287 5.94919C29.2681 5.79869 29.28 5.65402 29.323 5.51518C29.3684 5.38373 29.4363 5.26932 29.5267 5.17196C29.6397 5.11634 29.7296 5.0894 29.7963 5.09113C29.8556 5.09541 29.9187 5.09841 29.9854 5.10014C30.0274 5.10214 30.0682 5.10045 30.1077 5.09507C30.1497 5.09707 30.1904 5.09538 30.2299 5.09L30.4011 5.1548C30.4386 5.19144 30.4784 5.22312 30.5207 5.24982C30.5656 5.28391 30.6105 5.318 30.6553 5.35209C30.7101 5.39101 30.7649 5.42993 30.8197 5.46885C30.8745 5.50777 30.9281 5.55535 30.9806 5.61159C31.1217 5.85215 31.2068 6.06244 31.236 6.24248C31.2603 6.43245 31.2723 6.62256 31.272 6.8128C31.2776 6.87698 31.282 6.93746 31.2851 6.99425C31.2882 7.05104 31.2926 7.11153 31.2982 7.1757Z" fill="#940CC3" fill-opacity="0.33"/>
<path d="M22.7255 14.5581C22.804 14.6243 22.8598 14.6586 22.8929 14.6608C22.9441 14.8028 23.0045 14.9315 23.0741 15.047C23.143 15.1735 23.2127 15.289 23.2831 15.3935C23.3432 15.4862 23.3982 15.573 23.448 15.6539C23.492 15.74 23.5304 15.8256 23.5633 15.9109C23.4838 16.0218 23.4461 16.1272 23.4504 16.2272C23.4539 16.3381 23.4615 16.43 23.4731 16.5028C23.3723 16.6011 23.2917 16.6454 23.2315 16.6358C23.1653 16.6313 23.0757 16.6058 22.9626 16.5593C22.8767 16.5202 22.7738 16.4855 22.6541 16.4552C22.5395 16.4308 22.4112 16.4441 22.2693 16.4954C22.1951 16.446 22.1206 16.4022 22.0457 16.3638C21.9708 16.3255 21.8904 16.2868 21.8045 16.2477C21.6436 16.1703 21.4806 16.0844 21.3154 15.9901C21.1553 15.9016 21.021 15.8011 20.9124 15.6885C20.8649 15.4914 20.7848 15.2866 20.672 15.074C20.5532 14.8666 20.4201 14.6665 20.2727 14.4737C20.1246 14.2919 19.9697 14.1263 19.8083 13.9769C19.6468 13.8274 19.4967 13.7147 19.3579 13.6388L19.1817 13.5437L19.0028 13.7309C18.8371 13.9687 18.6971 14.1945 18.5828 14.4082C18.4737 14.6278 18.3866 14.8488 18.3216 15.0714C18.2566 15.294 18.2077 15.5232 18.175 15.7591C18.1474 16.0008 18.1319 16.2683 18.1285 16.5616C18.131 16.8497 18.1662 17.1455 18.2341 17.4492C18.3071 17.7587 18.4058 18.0561 18.5303 18.3415C18.6489 18.632 18.7852 18.9071 18.9391 19.1667C19.093 19.4264 19.2488 19.6585 19.4065 19.8631C19.3409 20.0137 19.3535 20.1529 19.4444 20.281L19.5711 20.3727C19.6144 20.3867 19.6463 20.4055 19.6669 20.429C19.6867 20.4636 19.701 20.4978 19.7097 20.5316C19.7807 20.7081 19.7679 20.8955 19.6713 21.0938C19.5037 21.1156 19.3398 21.1238 19.1796 21.1184C19.0135 21.1181 18.8563 21.1102 18.7078 21.0945C18.5574 20.9458 18.4132 20.828 18.2752 20.741C18.1423 20.66 18.009 20.5844 17.8753 20.5144C17.7468 20.4503 17.6268 20.3839 17.5152 20.3154C17.3977 20.252 17.274 20.1577 17.1441 20.0326C17.0489 19.8046 16.9467 19.5983 16.8375 19.4137C16.7275 19.24 16.6099 19.0576 16.4845 18.8663L16.4174 18.7537C16.3642 18.4788 16.3059 18.198 16.2424 17.9112C16.1781 17.6355 16.1168 17.3988 16.0583 17.201C16.0628 17.1348 16.0593 17.0654 16.0476 16.9926C16.0301 16.925 16.0125 16.8573 15.995 16.7897C15.9914 16.7618 15.9834 16.7169 15.971 16.6552C15.9527 16.5985 15.9447 16.5537 15.9469 16.5206L16.2282 16.4152L16.0424 16.0952L16.1529 15.9367L16.1511 15.7206C16.0811 15.367 16.0533 15.0439 16.0677 14.7515C16.0762 14.4641 16.1208 14.1764 16.2014 13.8885C16.276 13.6056 16.3823 13.3056 16.5203 12.9883C16.6575 12.6821 16.8223 12.3362 17.0147 11.9506C17.1479 11.8656 17.2586 11.7846 17.3469 11.7075C17.4345 11.6415 17.522 11.5755 17.6096 11.5095C17.692 11.4376 17.7741 11.3712 17.8558 11.3104C17.9374 11.2495 18.0334 11.1813 18.1438 11.1058C18.2136 11.1382 18.2793 11.1482 18.3411 11.1358C18.4028 11.1235 18.4514 11.1018 18.4867 11.071C18.6558 11.0272 18.816 11.0326 18.9673 11.0872C19.1186 11.1419 19.2832 11.2057 19.4609 11.2787C19.552 11.3237 19.646 11.3661 19.7429 11.406C19.834 11.4509 19.9313 11.4853 20.0349 11.5089L19.9045 11.716L20.3652 11.7807C20.3983 11.7829 20.4343 11.7826 20.4732 11.7797C20.5063 11.782 20.5419 11.7872 20.5801 11.7953L20.7265 11.9631C21.1711 12.4254 21.5706 12.8596 21.9249 13.2659C22.2785 13.6831 22.5384 14.094 22.7046 14.4985L22.7255 14.5581Z" fill="#940CC3" fill-opacity="0.33"/>
<path d="M10.2507 20.7226C10.2608 20.684 10.3008 20.6645 10.3707 20.6638C10.4476 20.6666 10.5227 20.6642 10.596 20.6565L10.5394 20.7723C10.7178 20.7986 10.8651 20.8532 10.9811 20.936C11.1008 21.0292 11.2117 21.1225 11.3139 21.2159C11.4231 21.3127 11.5287 21.3991 11.6308 21.475C11.7364 21.5614 11.8644 21.6109 12.0147 21.6235C11.9765 21.6483 11.9715 21.6763 11.9998 21.7075C12.0316 21.7491 12.0739 21.7871 12.1266 21.8216C12.1829 21.8665 12.2444 21.9009 12.311 21.9247C12.3812 21.959 12.4391 21.9829 12.4846 21.9965C12.6576 22.194 12.848 22.374 13.0556 22.5363C13.2598 22.7056 13.464 22.8662 13.668 23.018C13.8791 23.1733 14.0779 23.327 14.2645 23.479C14.4547 23.6415 14.624 23.8111 14.7723 23.9879C14.7384 24.0931 14.6746 24.188 14.5811 24.2727C14.4911 24.3679 14.4095 24.4193 14.3361 24.427C14.3983 24.7269 14.5076 25.0194 14.6639 25.3044C14.8203 25.5895 14.9697 25.8711 15.112 26.1493C15.2579 26.438 15.3655 26.734 15.4346 27.0373C15.5038 27.3407 15.4771 27.6624 15.3544 28.0024C15.1528 28.1126 14.9304 28.2387 14.6871 28.3807C14.4508 28.5261 14.1983 28.6158 13.9296 28.6497C13.8671 28.6887 13.8028 28.7225 13.7366 28.7511C13.6741 28.7901 13.6116 28.8291 13.549 28.8681L13.3911 28.7909C13.2518 28.8446 13.1036 28.8722 12.9464 28.8737C12.7928 28.8856 12.6337 28.8818 12.4693 28.8623C12.3085 28.8533 12.1459 28.8391 11.9815 28.8197C11.8171 28.8002 11.6598 28.7929 11.5096 28.7978C11.4744 28.7632 11.4392 28.7373 11.4041 28.7202C11.3726 28.7135 11.3376 28.7051 11.2991 28.6949C11.2641 28.6953 11.2239 28.6887 11.1783 28.6751C11.1398 28.665 11.0925 28.6462 11.0363 28.6188C10.678 28.4089 10.4361 28.1386 10.3108 27.8079C10.1891 27.4875 10.1299 27.1369 10.1334 26.756C10.1404 26.3856 10.1754 26.0027 10.2381 25.6073C10.3078 25.2153 10.3516 24.8498 10.3695 24.5107C10.3414 24.497 10.3205 24.5042 10.3068 24.5323C10.2896 24.5674 10.2634 24.5676 10.2282 24.533C9.99895 24.6819 9.81829 24.7936 9.6862 24.8682C9.55069 24.9498 9.43085 25.026 9.32668 25.0969C9.22611 25.1781 9.12912 25.2699 9.03573 25.3721C8.9389 25.4813 8.81277 25.6327 8.65732 25.8263C8.50188 26.0199 8.37746 26.1678 8.28407 26.27C8.19426 26.3826 8.11482 26.4829 8.04576 26.5709C7.98371 26.6623 7.91823 26.7608 7.84932 26.8662C7.78042 26.9717 7.68914 27.114 7.57549 27.2933C7.46055 27.3328 7.33843 27.3514 7.20913 27.3491C7.07983 27.3468 6.95739 27.3304 6.84181 27.3C6.72623 27.2697 6.62273 27.2234 6.53131 27.1614C6.44349 27.1098 6.3835 27.0457 6.35134 26.9691C6.31984 26.9624 6.29722 26.9731 6.28351 27.0012C6.27338 27.0397 6.25623 27.0748 6.23207 27.1065C6.22098 27.0402 6.19943 26.9775 6.16744 26.9184C6.13545 26.8593 6.10346 26.8002 6.07147 26.7411C6.03948 26.682 6.01442 26.6176 5.99631 26.5479C5.97477 26.4852 5.97763 26.417 6.00491 26.3434C6.03008 26.0427 6.18432 25.7181 6.46761 25.3696C6.7509 25.021 7.15755 24.598 7.68754 24.1005C7.94731 23.8535 8.16912 23.6575 8.35296 23.5126C8.53681 23.3676 8.70514 23.2455 8.85796 23.1463C9.0178 23.0505 9.17601 22.9669 9.33258 22.8956C9.49617 22.8277 9.68588 22.7508 9.90172 22.665C9.90499 22.6405 9.89781 22.6196 9.88018 22.6023C9.85912 22.592 9.85022 22.5746 9.85349 22.5501C9.58985 22.3778 9.38915 22.2102 9.25138 22.0473C9.11018 21.8914 8.98262 21.6986 8.86869 21.4691C8.94462 21.367 8.97181 21.2847 8.95027 21.222C8.92529 21.1663 8.90898 21.1018 8.90131 21.0285C8.92157 20.9515 8.95079 20.9005 8.989 20.8757C9.02018 20.8475 9.05317 20.8245 9.08794 20.8067C9.12272 20.7889 9.15921 20.7676 9.19741 20.7428C9.23562 20.718 9.27007 20.6652 9.30077 20.5846C9.37424 20.5944 9.44419 20.6025 9.51064 20.6089C9.5841 20.6187 9.63961 20.5762 9.67718 20.4815C9.73006 20.5335 9.77928 20.5662 9.82483 20.5797C9.8774 20.5967 9.92466 20.6068 9.96662 20.6099C10.0156 20.6164 10.0646 20.623 10.1135 20.6295C10.1591 20.6431 10.2048 20.6741 10.2507 20.7226ZM13.3446 26.5902C13.2558 26.4337 13.1827 26.2719 13.1252 26.1048C13.0748 25.941 13.0174 25.7738 12.9529 25.6032C12.892 25.4431 12.812 25.2866 12.7127 25.1337C12.6205 24.9844 12.4882 24.8458 12.3158 24.7181C12.2069 25.0301 12.1367 25.3784 12.1053 25.763C12.081 26.1511 12.0581 26.5182 12.0369 26.8643C12.3137 26.9561 12.5654 26.966 12.7918 26.894C13.0253 26.8255 13.2096 26.7242 13.3446 26.5902Z" fill="#940CC3" fill-opacity="0.33"/>
<path d="M5.4739 34.6645C5.41582 34.583 5.3365 34.5317 5.23596 34.5105C5.14321 34.4897 5.05069 34.465 4.95837 34.4365C4.86606 34.4079 4.78653 34.3604 4.71978 34.2941C4.6604 34.2361 4.63871 34.1332 4.65471 33.9854C4.61744 33.952 4.59447 33.9429 4.5858 33.9581C4.57671 33.9811 4.54052 33.9986 4.47726 34.0108C4.4989 33.9024 4.49542 33.824 4.46681 33.7755C4.4382 33.7269 4.41803 33.6671 4.40632 33.5961C4.47085 33.4197 4.57678 33.273 4.72409 33.1559C4.87878 33.0471 5.04452 32.9507 5.22131 32.8666C5.39768 32.7902 5.57751 32.722 5.7608 32.6617C5.94367 32.6092 6.10335 32.5515 6.23985 32.4887C6.27105 32.4904 6.28189 32.5066 6.27236 32.5374C6.27106 32.5608 6.26977 32.5842 6.26847 32.6076C6.34864 32.5729 6.43595 32.5504 6.53042 32.54C6.63313 32.5222 6.71719 32.4877 6.78262 32.4366C7.25373 32.6895 7.74349 32.9592 8.25188 33.2455C8.76807 33.5323 9.28816 33.8193 9.81215 34.1065C10.3435 34.402 10.8751 34.6935 11.4069 34.9811C11.946 35.277 12.4741 35.5605 12.9912 35.8317C12.9011 36.0458 12.7958 36.2512 12.6754 36.448C12.5623 36.653 12.4309 36.8374 12.2809 37.0013C12.131 37.1651 11.9592 37.3004 11.7656 37.407C11.5792 37.5219 11.368 37.5924 11.1318 37.6184C11.0859 37.6002 11.0713 37.5799 11.0882 37.5573C11.1051 37.5348 11.0984 37.5148 11.0681 37.4975C11.0191 37.5339 10.9829 37.5515 10.9595 37.5502C10.9435 37.5571 10.924 37.5561 10.901 37.547C10.8859 37.5383 10.8627 37.5331 10.8315 37.5314C10.8003 37.5296 10.7563 37.5468 10.6995 37.5827C10.7095 37.5442 10.7032 37.5164 10.6807 37.4995C10.6659 37.4831 10.6674 37.4558 10.6852 37.4176C10.5738 37.4506 10.4874 37.4576 10.4258 37.4385C10.3643 37.4194 10.3071 37.3928 10.2542 37.3586C10.2091 37.3248 10.156 37.2945 10.0949 37.2676C10.0412 37.249 9.96275 37.2525 9.85961 37.2781C9.86134 37.2469 9.85483 37.223 9.8401 37.2066C9.83273 37.1983 9.82146 37.1899 9.80629 37.1812C9.79112 37.1725 9.77616 37.16 9.76143 37.1435C9.75406 37.1353 9.75514 37.1158 9.76467 37.085C9.56056 37.0972 9.35341 37.0935 9.14323 37.0741C8.94084 37.0551 8.73066 37.0356 8.51268 37.0157C8.30249 36.9963 8.08408 36.9842 7.85743 36.9795C7.63078 36.9747 7.39504 36.993 7.1502 37.0342C7.32665 37.3804 7.56527 37.6636 7.86607 37.8837C8.16643 38.1115 8.50449 38.2946 8.88024 38.4327C9.25556 38.5787 9.65991 38.695 10.0933 38.7815C10.5262 38.8759 10.967 38.9707 11.4155 39.066C11.4966 39.1565 11.5982 39.2287 11.7204 39.2824C11.8422 39.3439 11.9686 39.3939 12.0994 39.4325C12.2299 39.4788 12.3606 39.5213 12.4914 39.5598C12.6297 39.6066 12.7517 39.6642 12.8575 39.7326C12.8341 39.8722 12.7847 39.9868 12.7093 40.0765C12.6413 40.1745 12.562 40.264 12.4715 40.345C12.3887 40.4265 12.3096 40.5121 12.2342 40.6019C12.1589 40.6916 12.1056 40.806 12.0744 40.9451C11.9124 41.0457 11.7546 41.1387 11.6012 41.2241C11.4556 41.3099 11.2923 41.3635 11.1111 41.3847C11.0357 41.3336 10.9519 41.2938 10.8596 41.2652C10.7672 41.2366 10.6751 41.2041 10.5833 41.1677C10.491 41.1392 10.4071 41.0993 10.3317 41.0482C10.2563 40.9971 10.1936 40.9271 10.1438 40.8383C9.91105 40.8019 9.69457 40.7547 9.49435 40.6967C9.29413 40.6387 9.09759 40.5847 8.90473 40.535C8.71188 40.4852 8.511 40.4388 8.30212 40.396C8.09323 40.3531 7.86376 40.3287 7.61371 40.3227C7.39138 40.2399 7.16168 40.149 6.92461 40.0498C6.69534 39.951 6.48038 39.8765 6.27972 39.8263C6.17092 39.6716 6.03308 39.5466 5.86622 39.4513C5.69936 39.356 5.53271 39.2568 5.36628 39.1537C5.33724 39.113 5.33073 39.0891 5.34676 39.0822C5.3706 39.0757 5.38814 39.0415 5.3994 38.9795C5.32876 38.9834 5.28282 38.9652 5.26158 38.9249C5.2477 38.8928 5.19288 38.8937 5.09712 38.9275C5.04205 38.7915 4.96662 38.6699 4.87083 38.5629C4.77503 38.4559 4.68769 38.3376 4.60879 38.2081C4.52946 38.0863 4.47872 37.9426 4.45659 37.7771C4.44182 37.6198 4.48836 37.415 4.59622 37.1628C4.89819 36.7961 5.24091 36.4708 5.62438 36.1869C6.00784 35.9029 6.45416 35.6851 6.96332 35.5333C6.94424 35.454 6.89677 35.3927 6.82093 35.3494C6.74508 35.306 6.66512 35.2664 6.58104 35.2305C6.49696 35.1945 6.42068 35.159 6.3522 35.1239C6.28372 35.0888 6.25121 35.0401 6.25466 34.9777C6.18532 34.9582 6.12075 34.9233 6.06093 34.873C6.00849 34.831 5.95214 34.7888 5.89189 34.7463C5.83945 34.7043 5.77877 34.6696 5.70986 34.6424C5.64052 34.6229 5.56187 34.6303 5.4739 34.6645Z" fill="#940CC3" fill-opacity="0.33"/>
<path d="M4.86322 47.1162C4.89441 46.99 4.95167 46.8796 5.03498 46.7851C5.11576 46.6832 5.20899 46.5936 5.31466 46.5162C5.4178 46.4315 5.52843 46.3566 5.64655 46.2915C5.76953 46.2164 5.88512 46.1439 5.99331 46.074C6.09682 46.0386 6.17833 46.0356 6.23783 46.0648C6.30473 46.0915 6.3692 46.1231 6.43123 46.1597C6.49922 46.3346 6.56828 46.4885 6.63843 46.6214C6.70858 46.7543 6.77746 46.8835 6.84509 47.0091C6.91271 47.1346 6.97664 47.2613 7.03687 47.3894C7.10449 47.5149 7.16481 47.6552 7.21783 47.8105C7.48489 47.8431 7.73834 47.8722 7.97817 47.8976C8.2254 47.9205 8.46027 47.9435 8.68279 47.9666C8.88278 47.9478 9.07176 47.9452 9.24974 47.9587C9.43764 47.9771 9.61319 47.9956 9.77638 48.0142C9.94697 48.0302 10.1113 48.0401 10.2695 48.0439C10.435 48.0452 10.6016 48.0254 10.7693 47.9847C11.0584 47.985 11.3215 47.9819 11.5586 47.9752C11.8057 47.9734 12.0871 47.9392 12.4028 47.8727C12.2625 47.6069 12.1412 47.3965 12.0387 47.2416C11.9437 47.0842 11.8651 46.9748 11.8029 46.9135C11.7598 46.7631 11.749 46.6347 11.7704 46.5284C11.7944 46.4294 11.8345 46.3414 11.8908 46.2644C11.947 46.1874 12.0169 46.114 12.1004 46.0442C12.1839 45.9744 12.2686 45.8959 12.3544 45.8089C12.431 45.8157 12.5297 45.7903 12.6503 45.7326C12.7783 45.6723 12.8593 45.5952 12.8932 45.501C12.9282 45.5551 12.9914 45.5831 13.0828 45.5849C13.1816 45.5842 13.2494 45.5651 13.2862 45.5278C13.3661 45.6409 13.4337 45.7664 13.4891 45.9043C13.5518 46.0397 13.6096 46.1727 13.6625 46.3033C13.7252 46.4387 13.7855 46.5668 13.8432 46.6874C13.9083 46.8055 13.9855 46.8988 14.075 46.9673C14.221 47.3467 14.3722 47.7409 14.5283 48.1499C14.687 48.5663 14.838 48.9481 14.9814 49.2954C14.9825 49.4437 15.0121 49.6028 15.0701 49.7728C15.1307 49.9503 15.179 50.1278 15.2148 50.3054C15.2533 50.4904 15.2582 50.6621 15.2297 50.8204C15.2038 50.9862 15.1072 51.1265 14.94 51.2413C14.9631 51.3573 14.9613 51.4487 14.9346 51.5156C14.9105 51.5899 14.8676 51.6458 14.8061 51.6833C14.752 51.7183 14.6831 51.746 14.5992 51.7663C14.5253 51.7916 14.4514 51.8168 14.3774 51.8421C14.2483 51.7541 14.1226 51.6278 14.0004 51.4631C13.888 51.3034 13.7768 51.1226 13.6666 50.9208C13.5638 50.7165 13.4646 50.4986 13.369 50.267C13.2834 50.0404 13.199 49.8174 13.1158 49.5981C12.8592 49.6445 12.5482 49.6764 12.1827 49.6939C11.8271 49.7162 11.4739 49.7336 11.1232 49.7461C10.7798 49.756 10.4698 49.7669 10.1932 49.7788C9.92652 49.7956 9.75746 49.8203 9.68605 49.8529C9.49076 49.8371 9.32513 49.8235 9.18916 49.8121C9.05572 49.8081 8.92967 49.8017 8.81102 49.7926C8.69489 49.791 8.5775 49.7857 8.45884 49.7767C8.35011 49.7725 8.2228 49.7623 8.07691 49.7461L8.33442 50.5002C8.25815 50.5428 8.21406 50.595 8.20216 50.6569C8.19026 50.7187 8.18331 50.783 8.18133 50.8497C8.17935 50.9164 8.16745 50.9783 8.14563 51.0353C8.13373 51.0971 8.09081 51.1407 8.01688 51.1659C8.02788 51.319 8.00272 51.4267 7.94141 51.4889C7.8801 51.5511 7.8013 51.5863 7.70501 51.5944C7.61863 51.6074 7.52098 51.5994 7.41207 51.5706C7.30567 51.5491 7.21037 51.5239 7.12616 51.4948C7.11822 51.4232 7.07828 51.3667 7.00633 51.3252C6.94177 51.2812 6.87109 51.2435 6.79427 51.2119C6.75063 50.9874 6.68237 50.7754 6.5895 50.576C6.49663 50.3765 6.41251 50.1906 6.33713 50.0182C6.31712 49.9838 6.28989 49.9766 6.25544 49.9966C6.2284 50.0141 6.20369 50.0143 6.18133 49.9971C6.177 49.7427 6.12579 49.496 6.02769 49.2571C5.93211 49.0256 5.81183 48.7942 5.66685 48.563C5.53178 48.3367 5.3905 48.1043 5.24299 47.8657C5.08809 47.6297 4.9615 47.3798 4.86322 47.1162Z" fill="#940CC3" fill-opacity="0.33"/>
<path d="M15.025 54.254C15.0678 54.2078 15.0996 54.1606 15.1204 54.1125C15.1523 54.0654 15.1846 54.0128 15.2173 53.9546C15.264 53.8644 15.3192 53.7722 15.3828 53.6779C15.4465 53.5836 15.5351 53.4887 15.6488 53.3933C15.7187 53.355 15.7731 53.3348 15.8121 53.3326C15.8571 53.3254 15.8961 53.3233 15.9291 53.3262L16.1208 53.2264L16.2338 53.361C16.2681 53.4139 16.3053 53.4642 16.3455 53.5121C16.3907 53.5659 16.4334 53.6168 16.4736 53.6647C16.6645 53.892 16.8695 54.1177 17.0884 54.342C17.3073 54.5662 17.5343 54.7939 17.7693 55.025C18.0363 55.2701 18.3119 55.5436 18.5962 55.8456C18.6871 55.8202 18.7441 55.803 18.767 55.7939C18.795 55.7908 18.826 55.7851 18.86 55.777L18.9967 55.8305C19.1183 55.9631 19.1807 56.0739 19.1841 56.1629C19.1934 56.2469 19.1927 56.3189 19.1819 56.3789C19.3245 56.5244 19.4727 56.6704 19.6263 56.8168C19.7859 56.9583 19.9505 57.1057 20.1201 57.2591C20.351 57.4732 20.5844 57.6904 20.8204 57.9105C21.0563 58.1307 21.2722 58.3574 21.4682 58.5907C21.5536 58.6924 21.631 58.7906 21.7004 58.8854C21.7698 58.9802 21.8337 59.0744 21.8921 59.1682L21.9017 59.3438C21.88 59.4029 21.8662 59.4654 21.8605 59.5315C21.8547 59.5975 21.854 59.6695 21.8583 59.7475C21.8619 59.8976 21.845 60.0597 21.8077 60.2339C21.7754 60.4141 21.6445 60.5801 21.415 60.7321L21.2876 60.7626C21.2435 60.7587 21.1945 60.7489 21.1404 60.7331L20.9484 60.7414L20.8655 60.6427C20.8152 60.5828 20.7716 60.543 20.7345 60.5231C20.7034 60.4982 20.6613 60.4724 20.6081 60.4456C20.5761 60.4317 20.5415 60.4149 20.5044 60.395C20.4733 60.3701 20.4367 60.3447 20.3946 60.3189C20.3453 60.2481 20.3056 60.1947 20.2754 60.1588C20.2453 60.1229 20.2101 60.081 20.1699 60.0332C20.0192 59.8537 19.8439 59.6693 19.6441 59.4801C19.4443 59.2908 19.2466 59.11 19.0508 58.9377C18.9123 58.8092 18.7788 58.6867 18.6503 58.5701C18.5278 58.4486 18.4153 58.339 18.3129 58.2414C18.1071 58.3122 17.9243 58.3739 17.7645 58.4265C17.6046 58.4792 17.4423 58.5288 17.2774 58.5755C17.1125 58.6221 16.9472 58.6743 16.7814 58.732C16.6215 58.7846 16.4492 58.8528 16.2645 58.9365C16.0965 58.9552 15.9416 58.9833 15.7997 59.0209C15.6638 59.0534 15.5204 59.1075 15.3697 59.1831C15.1926 59.1788 15.0267 59.2059 14.8719 59.2645C14.7221 59.3291 14.5927 59.3816 14.4839 59.4221L14.3191 59.4992C14.2421 59.4925 14.1865 59.4933 14.1526 59.5014C14.1236 59.5155 14.0841 59.5232 14.0341 59.5244C13.9413 59.5717 13.8464 59.6106 13.7495 59.641C13.7095 59.6542 13.6666 59.6698 13.6206 59.688C13.5807 59.7012 13.5542 59.7183 13.5413 59.7393C13.4655 59.7826 13.3995 59.8074 13.3435 59.8136C13.3077 59.8438 13.2692 59.8709 13.2283 59.8951C13.1874 59.9193 13.1465 59.9434 13.1056 59.9676C13.0536 59.9908 13.0072 60.0145 12.9663 60.0387C12.9314 60.0578 12.904 60.0859 12.8841 60.123C12.8753 60.161 12.8664 60.1991 12.8575 60.2371C12.8487 60.2752 12.8313 60.3153 12.8055 60.3574C12.8036 60.3794 12.8072 60.4019 12.8163 60.4249C12.8254 60.4478 12.8289 60.4703 12.827 60.4923C12.8253 60.5754 12.8391 60.6403 12.8683 60.6872L12.836 60.8674C12.6508 61.0842 12.4556 61.192 12.2506 61.1908C12.0225 61.1987 11.803 61.077 11.592 60.8257L11.4954 60.6926C11.5021 60.6155 11.5089 60.569 11.5159 60.5529C11.4946 60.479 11.4778 60.4165 11.4656 60.3656C11.4474 60.3196 11.4467 60.2641 11.4635 60.199C11.4654 60.177 11.4588 60.157 11.4437 60.1391C11.4347 60.1161 11.4311 60.0936 11.433 60.0716C11.4007 59.9967 11.3814 59.9313 11.3752 59.8753L11.3461 59.7314C11.411 59.6871 11.4554 59.6549 11.4793 59.6348C11.5049 59.5317 11.544 59.4325 11.5967 59.3373C11.6543 59.248 11.7175 59.1592 11.7862 59.071C11.8369 58.9977 11.8817 58.9295 11.9204 58.8664C11.9642 58.8092 11.9945 58.748 12.0113 58.683C12.42 58.3193 12.8026 58.0642 13.1591 57.9178C13.5216 57.7663 13.8827 57.6314 14.2424 57.513C14.4362 57.4522 14.6305 57.3859 14.8253 57.3141C15.0201 57.2424 15.2128 57.1621 15.4035 57.0733L15.5851 57.0891C15.6562 57.1008 15.6997 57.1102 15.7158 57.1171C15.7935 57.0518 15.8809 57.0039 15.9778 56.9736C16.0807 56.9381 16.1861 56.9057 16.294 56.8763C16.362 56.86 16.4274 56.8408 16.4903 56.8185C16.5583 56.8022 16.6127 56.782 16.6537 56.7579C16.6185 56.716 16.5828 56.6796 16.5467 56.6487C16.5216 56.6188 16.491 56.5884 16.4548 56.5576C16.3716 56.4949 16.2998 56.4276 16.2395 56.3559C16.1943 56.302 16.1646 56.2606 16.1505 56.2317C16.0863 56.2039 16.0337 56.1716 15.9925 56.1347C15.9574 56.0929 15.9222 56.051 15.887 56.0091L15.7966 55.9014L15.7061 55.7938C15.6458 55.722 15.5891 55.6727 15.536 55.6459C15.4657 55.5621 15.4204 55.5083 15.4003 55.4844C15.3802 55.4604 15.3576 55.4335 15.3325 55.4036L15.2421 55.2959L15.1516 55.1882C15.1114 55.1404 15.0692 55.084 15.0249 55.0192C14.9866 54.9493 14.9578 54.8664 14.9384 54.7704L14.9575 54.6473C14.9931 54.5562 15.0014 54.4931 14.9822 54.4582L14.9262 54.3369L15.025 54.254Z" fill="#940CC3" fill-opacity="0.33"/>
<path d="M22.5897 63.1677C22.6221 63.0702 22.6332 63.0057 22.623 62.9741C22.7358 62.8738 22.8328 62.7699 22.9142 62.6624C23.0061 62.5514 23.0874 62.4439 23.1583 62.3397C23.222 62.2495 23.2822 62.1662 23.3388 62.0899C23.4024 62.0171 23.4677 61.9496 23.5347 61.8873C23.6671 61.92 23.779 61.9158 23.8702 61.8747C23.972 61.8303 24.0545 61.7891 24.1177 61.7513C24.2464 61.8084 24.3175 61.8667 24.3309 61.9262C24.3513 61.9893 24.3609 62.082 24.3598 62.2043C24.3554 62.2986 24.3614 62.4069 24.3777 62.5294C24.3976 62.6449 24.4576 62.759 24.5579 62.8717C24.5396 62.9589 24.5266 63.0444 24.5188 63.1282C24.511 63.212 24.505 63.301 24.5006 63.3953C24.4884 63.5734 24.4692 63.7566 24.443 63.9451C24.4203 64.1266 24.3769 64.2886 24.3126 64.4313C24.1473 64.5485 23.9869 64.699 23.8315 64.8827C23.683 65.07 23.5466 65.2679 23.4223 65.4763C23.3086 65.6814 23.2123 65.8867 23.1335 66.0921C23.0547 66.2975 23.0059 66.4787 22.9869 66.6358L22.9641 66.8347L23.2043 66.9313C23.4867 66.9968 23.7483 67.043 23.9891 67.0697C24.2335 67.0895 24.4711 67.0882 24.7019 67.0659C24.9327 67.0436 25.1637 67.0039 25.3949 66.9466C25.6296 66.8825 25.8837 66.7975 26.1572 66.6918C26.4238 66.5825 26.6854 66.4399 26.9421 66.2641C27.2024 66.0814 27.4419 65.8792 27.6606 65.6577C27.8863 65.4397 28.0911 65.211 28.275 64.9716C28.459 64.7323 28.6166 64.5014 28.748 64.279C28.9121 64.2841 29.0368 64.2206 29.1219 64.0886L29.16 63.937C29.1569 63.8915 29.1625 63.8549 29.1767 63.8271C29.2015 63.7959 29.2279 63.7699 29.2561 63.7492C29.3936 63.6177 29.5723 63.56 29.7923 63.5761C29.8748 63.7236 29.9432 63.8727 29.9977 64.0235C30.0592 64.1778 30.1102 64.3268 30.1508 64.4704C30.0686 64.6653 30.0127 64.843 29.9833 65.0034C29.9574 65.1569 29.9367 65.3087 29.9214 65.4588C29.9095 65.6019 29.8925 65.738 29.8704 65.8671C29.8551 65.9997 29.8135 66.1496 29.7456 66.3167C29.5693 66.4897 29.4157 66.6612 29.2848 66.8312C29.1644 66.9978 29.0387 67.1748 28.9077 67.3622L28.8281 67.4663C28.5926 67.6178 28.3535 67.7763 28.1108 67.9417C27.8787 68.1038 27.6817 68.2487 27.5198 68.3764C27.4567 68.3968 27.3935 68.4259 27.3303 68.4638C27.274 68.5052 27.2177 68.5466 27.1614 68.588C27.1368 68.6017 27.0981 68.6258 27.0454 68.6602C26.9996 68.6982 26.961 68.7223 26.9294 68.7325L26.7271 68.5105L26.499 68.8019L26.3107 68.7582L26.1108 68.8401C25.8085 69.0365 25.5189 69.1822 25.2419 69.2775C24.972 69.3762 24.6883 69.4417 24.391 69.4739C24.1007 69.5096 23.7826 69.5223 23.4368 69.5121C23.1015 69.4984 22.7192 69.4739 22.2897 69.4384C22.1613 69.3463 22.045 69.2736 21.9406 69.2202C21.8468 69.1634 21.753 69.1067 21.6592 69.0499C21.5619 69 21.4697 68.9485 21.3829 68.8953C21.296 68.8421 21.1971 68.7782 21.086 68.7038C21.0902 68.627 21.0751 68.5622 21.0406 68.5095C21.0062 68.4567 20.9681 68.4197 20.9264 68.3983C20.8229 68.2576 20.7684 68.1069 20.7629 67.9461C20.7574 67.7853 20.7556 67.6088 20.7574 67.4167C20.7653 67.3154 20.7698 67.2124 20.7708 67.1076C20.7787 67.0063 20.7744 66.9032 20.758 66.7983L20.9986 66.8424L20.8876 66.3907C20.8774 66.3591 20.8637 66.3258 20.8466 66.2907C20.8364 66.2592 20.828 66.2241 20.8214 66.1856L20.9228 65.9874C21.1869 65.4029 21.4417 64.8707 21.6873 64.3909C21.9434 63.9076 22.2284 63.5137 22.5422 63.2092L22.5897 63.1677Z" fill="#940CC3" fill-opacity="0.33"/>
<path d="M32.9464 72.4608C32.9068 72.4657 32.8738 72.4359 32.8472 72.3712C32.8213 72.2988 32.7911 72.23 32.7568 72.1648L32.8853 72.1743C32.8435 71.9988 32.8394 71.8419 32.8732 71.7033C32.9153 71.5576 32.9608 71.42 33.0095 71.2904C33.0589 71.1531 33.0998 71.0229 33.1324 70.9C33.1734 70.7698 33.1718 70.6326 33.1277 70.4884C33.1649 70.5146 33.1927 70.5088 33.2112 70.471C33.238 70.426 33.2577 70.3726 33.2701 70.3109C33.2908 70.2419 33.2999 70.1721 33.2973 70.1014C33.3031 70.0235 33.3038 69.9609 33.2995 69.9135C33.4187 69.6795 33.515 69.436 33.5886 69.1829C33.67 68.9304 33.7433 68.6812 33.8085 68.4354C33.8743 68.1817 33.9431 67.94 34.0149 67.7104C34.0951 67.4734 34.1898 67.2533 34.2988 67.0498C34.4091 67.0423 34.5209 67.0663 34.6343 67.1217C34.7561 67.1699 34.8341 67.2266 34.8685 67.2918C35.1238 67.1227 35.3548 66.9126 35.5614 66.6615C35.768 66.4105 35.9741 66.1672 36.1795 65.9317C36.3933 65.6891 36.6282 65.4793 36.8842 65.3024C37.1401 65.1255 37.4487 65.0308 37.81 65.0184C37.9872 65.1647 38.1869 65.3244 38.4091 65.4975C38.6318 65.6629 38.8089 65.864 38.9402 66.1009C38.9996 66.1445 39.0549 66.1917 39.106 66.2425C39.1654 66.286 39.2249 66.3296 39.2843 66.3732L39.2713 66.5485C39.3729 66.6578 39.4536 66.7852 39.5133 66.9307C39.5814 67.0689 39.6369 67.2179 39.6799 67.3778C39.7313 67.5304 39.7785 67.6867 39.8215 67.8465C39.8645 68.0064 39.9162 68.1552 39.9765 68.2928C39.9574 68.3384 39.9465 68.3807 39.9436 68.4196C39.9491 68.4514 39.9543 68.487 39.9592 68.5265C39.9724 68.5589 39.9812 68.5987 39.9856 68.646C39.9905 68.6855 39.9906 68.7365 39.986 68.7988C39.9243 69.2094 39.7631 69.5343 39.5025 69.7736C39.2503 70.0056 38.9468 70.1907 38.5919 70.3289C38.2453 70.4599 37.8768 70.5697 37.4864 70.6583C37.0965 70.7392 36.7409 70.8342 36.4194 70.9436C36.4171 70.9748 36.4316 70.9915 36.4627 70.9938C36.5017 70.9967 36.5116 71.0209 36.4926 71.0665C36.7159 71.2241 36.8868 71.3503 37.0051 71.4453C37.1312 71.5408 37.2465 71.6237 37.3509 71.6941C37.4638 71.7573 37.585 71.8133 37.7145 71.8621C37.8519 71.9114 38.0393 71.9723 38.2768 72.0447C38.5143 72.1171 38.6978 72.1777 38.8274 72.2265C38.9653 72.268 39.0879 72.3045 39.1953 72.336C39.3032 72.3597 39.4189 72.3839 39.5424 72.4087C39.6659 72.4335 39.832 72.4654 40.0406 72.5044C40.12 72.5964 40.1826 72.7029 40.2285 72.8238C40.2744 72.9447 40.3047 73.0644 40.3194 73.183C40.3341 73.3016 40.3297 73.4149 40.306 73.5228C40.2907 73.6235 40.2535 73.703 40.1943 73.7613C40.1998 73.7931 40.2181 73.8101 40.2493 73.8124C40.2888 73.8075 40.3278 73.8104 40.3662 73.821C40.3087 73.856 40.2585 73.8993 40.2155 73.9509C40.1725 74.0026 40.1296 74.0542 40.0866 74.1059C40.0436 74.1575 39.9931 74.2047 39.9351 74.2474C39.8849 74.2907 39.8205 74.3133 39.742 74.3154C39.4535 74.4037 39.0948 74.381 38.666 74.2474C38.2372 74.1138 37.6934 73.8934 37.0346 73.5861C36.7088 73.4366 36.4445 73.3035 36.2416 73.1866C36.0387 73.0697 35.8629 72.9588 35.714 72.8538C35.5656 72.7409 35.4293 72.6251 35.3049 72.5062C35.1811 72.3795 35.0393 72.2319 34.8794 72.0634C34.8555 72.0695 34.8387 72.0839 34.8292 72.1067C34.8275 72.1301 34.8146 72.1448 34.7907 72.1509C34.7287 72.4596 34.6476 72.7082 34.5475 72.8966C34.4551 73.0857 34.3235 73.2757 34.1527 73.4667C34.0298 73.4341 33.9432 73.4394 33.893 73.4827C33.8506 73.5266 33.7968 73.5657 33.7316 73.6C33.6525 73.6099 33.5944 73.6016 33.5571 73.5754C33.5193 73.5569 33.4857 73.5348 33.4563 73.5091C33.4268 73.4835 33.3935 73.4575 33.3563 73.4312C33.3191 73.405 33.2573 73.3926 33.171 73.394C33.1528 73.3222 33.1344 73.2542 33.1156 73.1902C33.0974 73.1183 33.0374 73.0825 32.9356 73.0828C32.9641 73.0144 32.9762 72.9566 32.9719 72.9092C32.9682 72.8541 32.9599 72.8065 32.9472 72.7664C32.9351 72.7185 32.923 72.6706 32.9109 72.6227C32.9065 72.5754 32.9184 72.5214 32.9464 72.4608ZM37.2452 67.409C37.133 67.5495 37.0099 67.6775 36.876 67.7929C36.7427 67.9006 36.6088 68.016 36.4743 68.1392C36.3482 68.2552 36.2327 68.3877 36.1276 68.5366C36.0232 68.6777 35.9437 68.852 35.8892 69.0595C36.2193 69.0447 36.5687 68.9805 36.9375 68.8668C37.3069 68.7453 37.6562 68.6302 37.9854 68.5214C37.9678 68.2302 37.8835 67.9929 37.7326 67.8094C37.5823 67.6181 37.4198 67.4846 37.2452 67.409Z" fill="#940CC3" fill-opacity="0.33"/>
<path d="M46.4753 72.8051C46.3967 72.7646 46.3294 72.7083 46.2734 72.636C46.2248 72.5613 46.1438 72.5135 46.0304 72.4924C45.9797 72.3856 45.9168 72.2663 45.8417 72.1345C45.7717 71.9929 45.6979 71.8525 45.6204 71.7132C45.548 71.5642 45.4805 71.4176 45.4179 71.2736C45.3603 71.1198 45.3224 70.9761 45.3042 70.8424C45.2976 70.7707 45.2996 70.7003 45.3103 70.6313C45.3284 70.5598 45.3439 70.4933 45.357 70.4317C45.3751 70.3602 45.382 70.2924 45.3778 70.2281C45.381 70.1614 45.3657 70.1007 45.3317 70.046C45.374 70.0242 45.3928 69.9935 45.3883 69.9539C45.3889 69.9045 45.4213 69.8777 45.4856 69.8735C45.4852 69.6932 45.492 69.5228 45.5062 69.3623C45.5204 69.2019 45.5395 69.044 45.5635 68.8886C45.5874 68.7332 45.6114 68.5778 45.6354 68.4224C45.6645 68.2572 45.6813 68.0795 45.6859 67.8894C45.5213 67.8109 45.3877 67.7143 45.2853 67.5995C45.1878 67.4748 45.1016 67.3466 45.0265 67.2148C44.9514 67.083 44.8837 66.9488 44.8235 66.8123C44.7609 66.6682 44.6834 66.529 44.591 66.3945C44.6374 66.232 44.7106 66.0895 44.8108 65.9671C44.9087 65.8373 45.0236 65.7225 45.1557 65.6227C45.2928 65.513 45.4459 65.4147 45.6149 65.3277C45.7815 65.2332 45.958 65.1314 46.1446 65.0224C46.4659 64.7962 46.7583 64.6081 47.0219 64.4579C47.2831 64.3002 47.5416 64.1598 47.7975 64.0367C48.051 63.9062 48.318 63.7795 48.5986 63.6567C48.8768 63.5264 49.1948 63.3669 49.5528 63.1783C49.5674 63.1982 49.5821 63.2058 49.597 63.201C49.6193 63.1938 49.6453 63.1855 49.6751 63.1759C49.7141 63.2209 49.7634 63.2338 49.8229 63.2147C49.8157 63.1924 49.806 63.175 49.7938 63.1625C49.7867 63.1402 49.7807 63.1216 49.7759 63.1067C49.7908 63.1019 49.8106 63.0997 49.8353 63.0999C49.8674 63.0978 49.8922 63.0981 49.9094 63.1008C49.9341 63.1011 49.9527 63.0951 49.9652 63.0829C49.9753 63.0632 49.9707 63.036 49.9513 63.0012C50.0907 63.1288 50.2478 63.222 50.4225 63.2808C50.5949 63.3321 50.7786 63.3676 50.9735 63.3871C51.0024 63.4516 51.0179 63.5 51.0201 63.5321C51.0296 63.5619 51.0354 63.5928 51.0375 63.625C51.0373 63.6497 51.0431 63.6806 51.055 63.7178C51.0646 63.7476 51.0863 63.7898 51.1203 63.8446C51.0657 64.0836 50.9782 64.284 50.8578 64.4457C50.7448 64.605 50.6123 64.7419 50.4603 64.8563C50.3083 64.9707 50.1403 65.0738 49.9565 65.1656C49.78 65.255 49.5974 65.3505 49.4084 65.4521C49.2246 65.5439 49.0418 65.6518 48.86 65.7758C48.6782 65.8997 48.5097 66.0522 48.3545 66.2333C48.2878 66.2301 48.2296 66.2405 48.18 66.2647C48.1353 66.279 48.0894 66.302 48.0421 66.3335C47.9948 66.3651 47.94 66.3991 47.8778 66.4354C47.8231 66.4694 47.7487 66.4933 47.6547 66.507C47.6119 66.5782 47.5531 66.6381 47.4784 66.6866C47.4112 66.7328 47.3403 66.7802 47.2656 66.8288C47.329 66.8987 47.3702 66.9757 47.389 67.0599C47.4152 67.1418 47.4491 67.2089 47.4905 67.2612C47.8125 67.1907 48.1584 67.0798 48.5282 66.9283C48.8957 66.7694 49.2593 66.624 49.619 66.4922C49.6384 66.527 49.643 66.5543 49.6329 66.5739C49.6228 66.5936 49.6237 66.622 49.6357 66.6592C49.7169 66.6823 49.7981 66.7178 49.8791 66.7657C49.9601 66.8136 50.041 66.8614 50.122 66.9093C50.2081 66.9473 50.2917 66.9779 50.373 67.0011C50.4519 67.0168 50.5348 67.0066 50.6217 66.9705C50.6827 67.033 50.7338 67.1027 50.7749 67.1798C50.8161 67.2568 50.8324 67.346 50.8238 67.4472C50.706 67.5916 50.5932 67.7386 50.4853 67.8881C50.375 68.0301 50.2548 68.1671 50.1248 68.2991C50.0023 68.4286 49.8601 68.5481 49.6983 68.6574C49.5365 68.7668 49.3502 68.8511 49.1395 68.9105C49.1023 68.9225 49.0689 68.9332 49.0391 68.9427C49.0168 68.9499 48.9823 68.9446 48.9355 68.9268C48.8731 68.9878 48.7774 69.0349 48.6485 69.068C48.5248 69.0913 48.4279 69.1347 48.358 69.1982C48.2419 69.1944 48.1132 69.2152 47.9719 69.2605C47.838 69.3035 47.713 69.3231 47.5969 69.3193C47.525 69.5556 47.4642 69.8008 47.4144 70.0547C47.3622 70.3012 47.3296 70.5578 47.3167 70.8245C47.6361 70.7712 47.895 70.7087 48.0934 70.6368C48.2919 70.5649 48.4768 70.4892 48.6482 70.4096C48.8196 70.33 48.9947 70.2492 49.1735 70.1673C49.3597 70.0829 49.5917 70.0003 49.8693 69.9194C50.0267 69.7705 50.2196 69.643 50.4481 69.5368C50.6816 69.4209 50.8918 69.296 51.0786 69.1622C51.1602 69.1607 51.2377 69.185 51.3113 69.2353C51.3825 69.2781 51.4511 69.3258 51.5172 69.3785C51.5884 69.4213 51.6572 69.4566 51.7235 69.4846C51.7899 69.5125 51.8617 69.5059 51.9387 69.4648C51.9878 69.49 52.0245 69.5275 52.0486 69.5772C52.0802 69.6245 52.1069 69.6693 52.1286 69.7115C52.1578 69.7514 52.1884 69.7826 52.2202 69.8052C52.2497 69.8203 52.293 69.8147 52.3501 69.7881C52.3019 70.1236 52.2135 70.3981 52.0851 70.6116C51.9641 70.8227 51.8064 71.0087 51.6118 71.1695C51.4223 71.3206 51.1971 71.4626 50.9362 71.5955C50.6803 71.7186 50.3946 71.8636 50.0789 72.0305C50.0018 72.0717 49.9312 72.0943 49.8669 72.0985C49.8077 72.0929 49.7483 72.0997 49.6888 72.1188C49.4924 72.2228 49.2551 72.3399 48.9769 72.4702C48.7062 72.5981 48.4246 72.7048 48.1321 72.7905C47.8395 72.8761 47.5486 72.9284 47.2594 72.9474C46.9701 72.9663 46.7087 72.9189 46.4753 72.8051Z" fill="#940CC3" fill-opacity="0.33"/>
<path d="M65.9442 61.0618C65.9382 61.0858 65.9233 61.0948 65.8993 61.0888C65.8753 61.0829 65.8534 61.0736 65.8336 61.0611C65.818 61.0419 65.8078 61.0215 65.803 61C65.8024 60.9718 65.817 60.9487 65.847 60.9307C65.687 60.9495 65.5558 60.9448 65.4533 60.9168C65.355 60.8822 65.2222 60.858 65.055 60.8444C65.0478 60.8121 65.0298 60.7822 65.001 60.7546C64.9656 60.7229 64.9356 60.69 64.911 60.6559C64.8822 60.6283 64.8654 60.6038 64.8606 60.5822C64.8534 60.5499 64.8713 60.5289 64.9144 60.5192C64.8335 60.4864 64.7742 60.4487 64.7364 60.4062C64.6986 60.3637 64.6641 60.3233 64.6329 60.285C64.6058 60.2401 64.5746 60.2018 64.5393 60.1701C64.5039 60.1383 64.4514 60.1189 64.3819 60.1118C64.29 59.8776 64.1576 59.678 63.9848 59.5128C63.8055 59.3434 63.6355 59.2031 63.4747 59.0918C63.4531 58.9948 63.4053 58.8951 63.3315 58.7927C63.2619 58.6837 63.1806 58.5859 63.0876 58.4991C62.9946 58.4123 62.8987 58.3375 62.7997 58.2747C62.6942 58.2077 62.6034 58.1686 62.5272 58.1573C62.5051 58.1339 62.5002 58.1124 62.5128 58.0926C62.5229 58.062 62.5418 58.0323 62.5693 58.0035C62.3348 57.7899 62.0601 57.5739 61.7453 57.3556C61.4346 57.1306 61.1456 56.9009 60.8781 56.6663C60.6081 56.4209 60.3966 56.171 60.2435 55.9165C60.0839 55.6579 60.0485 55.3856 60.1374 55.0997C60.3317 55.1582 60.5144 55.1909 60.6858 55.1979C60.8614 55.1983 61.0357 55.1933 61.2089 55.1829C61.3862 55.1659 61.5636 55.149 61.7409 55.132C61.9183 55.115 62.1046 55.113 62.3 55.1259C62.4475 55.2288 62.6118 55.3563 62.7929 55.5082C62.9783 55.6536 63.1606 55.811 63.3399 55.9804C63.5235 56.1432 63.6983 56.305 63.8645 56.466C64.0348 56.6204 64.1755 56.756 64.2865 56.8727C64.3237 56.887 64.3614 56.8786 64.3997 56.8474C64.4314 56.812 64.4719 56.8284 64.5211 56.8967C64.5964 56.6761 64.6791 56.451 64.7693 56.2214C64.8571 55.981 64.944 55.7493 65.03 55.5263C65.1137 55.2926 65.1865 55.0612 65.2485 54.8322C65.3148 54.5967 65.3595 54.3659 65.3826 54.14C65.0911 53.8995 64.8092 53.6511 64.5369 53.395C64.2645 53.1389 63.9554 52.9334 63.6095 52.7786C63.6016 52.7181 63.583 52.66 63.5536 52.6043C63.5241 52.5486 63.5196 52.4902 63.5399 52.429C63.3631 52.3723 63.1943 52.2883 63.0336 52.1771C62.8663 52.0616 62.7247 51.9347 62.6089 51.7965C62.4973 51.6516 62.4201 51.4962 62.3774 51.3303C62.3281 51.1601 62.333 50.9921 62.3921 50.826C62.5718 50.8198 62.7552 50.8298 62.9422 50.856C63.1292 50.8821 63.3194 50.9103 63.513 50.9407C63.7 50.9668 63.8825 50.9855 64.0604 50.9967C64.2426 51.0013 64.4175 50.9735 64.5852 50.9134C64.8286 51.0401 65.0766 51.1744 65.329 51.3161C65.5748 51.4536 65.8284 51.6007 66.0899 51.7574C66.349 52.0052 66.5953 52.2587 66.8287 52.5178C67.0596 52.7662 67.3229 53.0074 67.6186 53.2413C67.6445 53.3318 67.6898 53.4207 67.7546 53.5081C67.8129 53.5914 67.8744 53.6767 67.9392 53.7641C68.0016 53.8407 68.0598 53.9239 68.1138 54.0137C68.1679 54.1036 68.2024 54.1949 68.2175 54.2877C68.3266 54.32 68.4177 54.3732 68.4909 54.4474C68.5617 54.5109 68.672 54.5485 68.8218 54.5603C69.0347 54.6769 69.1894 54.8121 69.2861 54.966C69.3803 55.1091 69.4413 55.2681 69.4691 55.443C69.4944 55.6072 69.4907 55.7807 69.458 55.9635C69.4228 56.1355 69.3844 56.3054 69.3426 56.4732C69.2612 56.514 69.1818 56.5516 69.1046 56.5858C69.0249 56.6093 68.9501 56.6543 68.88 56.7209L68.8224 56.6149C68.6067 56.6631 68.3949 56.6906 68.187 56.6974C67.9767 56.6935 67.778 56.6275 67.5909 56.4995C67.5843 56.4953 67.5456 56.4615 67.4748 56.3981C67.3975 56.3304 67.3168 56.2607 67.2328 56.1889C67.1531 56.1105 67.0778 56.0396 67.007 55.9762C66.9338 55.9019 66.8939 55.8627 66.8873 55.8586C66.7899 56.0558 66.7113 56.2743 66.6517 56.514C66.592 56.7538 66.5444 56.9965 66.5087 57.2422C66.4706 57.4772 66.4454 57.7064 66.4331 57.9299C66.4184 58.1426 66.4093 58.3173 66.4059 58.4539C66.4256 58.4665 66.4712 58.5186 66.5427 58.6101C66.6141 58.7017 66.6879 58.8041 66.7641 58.9173C66.8337 59.0262 66.8893 59.1355 66.9308 59.2451C66.9764 59.3482 66.9771 59.4272 66.9328 59.4824C66.9742 59.4902 67.0089 59.4937 67.0371 59.4931C67.0587 59.4883 67.0884 59.5071 67.1261 59.5496C67.088 59.6827 67.0659 59.8121 67.0601 59.938C67.0584 60.0572 67.0448 60.1735 67.0191 60.2867C67.0001 60.4042 66.9517 60.5169 66.8739 60.6248C66.8069 60.7304 66.6857 60.8339 66.5103 60.9353C66.4641 60.906 66.412 60.9007 66.3539 60.9193C66.2892 60.9338 66.229 60.9557 66.1733 60.9852C66.1218 61.008 66.0757 61.0296 66.0349 61.05C65.9942 61.0705 65.964 61.0744 65.9442 61.0618Z" fill="#940CC3" fill-opacity="0.33"/>
<path d="M73.4285 45.8489C73.4229 46.1958 73.3602 46.5024 73.2405 46.7686C73.1208 47.0348 72.9627 47.2675 72.7663 47.4667C72.5711 47.6581 72.3491 47.8178 72.1003 47.9458C71.8528 48.066 71.5939 48.1568 71.3237 48.2183C70.7879 48.2075 70.3159 48.1156 69.9077 47.9426C69.4917 47.7684 69.1182 47.5492 68.7871 47.2853C68.456 47.0213 68.1522 46.7338 67.8757 46.4228C67.6004 46.1041 67.3349 45.7988 67.0792 45.5068C67.1106 45.4563 67.1171 45.4138 67.0986 45.3794C67.0814 45.3372 67.0552 45.3016 67.0201 45.2725C66.9862 45.2357 66.9523 45.1989 66.9184 45.1621C66.8857 45.1176 66.8652 45.071 66.8568 45.0223C66.792 44.9808 66.74 44.9333 66.7008 44.8799C66.6627 44.8188 66.6285 44.7582 66.5981 44.6983C66.5612 44.6294 66.5232 44.5683 66.4839 44.5148C66.4458 44.4537 66.395 44.3985 66.3314 44.3493C66.3278 44.2697 66.3108 44.1999 66.2804 44.14C66.2512 44.0723 66.217 44.0117 66.1778 43.9583C66.1397 43.8972 66.1055 43.8366 66.0751 43.7766C66.0448 43.7167 66.0239 43.6463 66.0126 43.5655L65.862 43.5425C65.8107 43.3608 65.7446 43.2243 65.6638 43.1329C65.5829 43.0415 65.4774 42.9305 65.3471 42.8C65.3524 42.7138 65.3586 42.6476 65.3657 42.6013C65.3739 42.5472 65.3786 42.4649 65.3797 42.3545C65.259 42.2649 65.1725 42.1845 65.1202 42.1133C65.0678 42.042 65.0119 41.9426 64.9524 41.815C65.0319 41.7086 65.0894 41.5909 65.1249 41.462C65.1527 41.3319 65.2289 41.221 65.3535 41.1294C65.4474 41.1359 65.5249 41.12 65.586 41.082C65.6394 41.0427 65.6934 40.9996 65.748 40.9526C65.7949 40.9045 65.8457 40.8569 65.9003 40.8099C65.9549 40.7629 66.0258 40.7382 66.1131 40.7358C66.119 40.6971 66.1148 40.6728 66.1006 40.6627C66.0875 40.6449 66.0878 40.6173 66.1014 40.5799C66.1655 40.5738 66.2181 40.5661 66.2591 40.5565C66.3 40.547 66.3371 40.5369 66.3704 40.5261C66.4048 40.5077 66.4425 40.4937 66.4835 40.4841C66.5257 40.4669 66.575 40.4547 66.6314 40.4475C66.7181 40.5002 66.8132 40.5503 66.9166 40.5978C67.0123 40.644 67.0724 40.7164 67.0968 40.815C67.1586 40.8244 67.1969 40.8066 67.2117 40.7614C67.2188 40.7151 67.2499 40.6922 67.3052 40.6927C67.3759 40.6956 67.432 40.716 67.4736 40.754C67.8697 40.5933 68.282 40.4548 68.7108 40.3385C69.1318 40.2211 69.5409 40.0781 69.9381 39.9096C70.0439 39.9416 70.1526 39.9543 70.2642 39.9476C70.3693 39.9321 70.475 39.9127 70.5813 39.8894C70.6888 39.8584 70.7957 39.8313 70.902 39.808C71.0083 39.7847 71.1128 39.7731 71.2156 39.773C71.3492 39.7776 71.4921 39.7994 71.6442 39.8385C71.7886 39.8763 71.9267 39.9291 72.0587 39.9967C72.1906 40.0642 72.3124 40.1461 72.4242 40.2422C72.5282 40.3371 72.6035 40.4395 72.6499 40.5494C72.7855 40.6965 72.8893 40.8705 72.9614 41.0712C73.0257 41.2707 73.1117 41.4577 73.2194 41.6322C73.2647 41.7498 73.2933 41.8727 73.3053 42.001C73.3096 42.1281 73.3171 42.2596 73.328 42.3957C73.3744 42.5055 73.4179 42.6346 73.4584 42.7831C73.4912 42.9304 73.5196 43.0809 73.5435 43.2347C73.5674 43.3885 73.5836 43.5412 73.5921 43.6926C73.5928 43.8429 73.5766 43.9748 73.5435 44.0883C73.6014 44.3816 73.6296 44.6626 73.628 44.931C73.6265 45.1995 73.56 45.5055 73.4285 45.8489ZM69.2348 45.0538C69.4007 45.1582 69.5487 45.2757 69.6789 45.4062C69.8025 45.5279 69.9301 45.6501 70.0615 45.7729C70.1929 45.8958 70.3376 46.0088 70.4957 46.112C70.6473 46.2063 70.8344 46.2744 71.0572 46.3163C71.2121 46.1819 71.3209 46.0128 71.3837 45.8091C71.4399 45.5964 71.4774 45.3768 71.4962 45.1505C71.5073 44.923 71.5106 44.6943 71.5062 44.4645C71.5018 44.2346 71.5132 44.0309 71.5404 43.8532C71.4708 43.8426 71.4408 43.8064 71.4503 43.7446C71.4689 43.4155 71.4262 43.1008 71.3219 42.8003C71.21 42.4987 71.0998 42.1855 70.9913 41.8607C70.9046 41.8079 70.8312 41.7453 70.7711 41.6729C70.711 41.6005 70.6159 41.5504 70.4858 41.5226C70.4104 41.5506 70.3484 41.5688 70.2997 41.5772C70.2522 41.5778 70.1821 41.571 70.0894 41.5569C69.7807 41.7152 69.4529 41.8429 69.1061 41.9401C68.7516 42.036 68.4129 42.1581 68.0899 42.3064C68.1262 42.3277 68.1601 42.3645 68.1916 42.4167C68.2231 42.469 68.2077 42.518 68.1454 42.5638C68.2191 42.5988 68.2679 42.6418 68.2917 42.6928C68.3077 42.7427 68.3111 42.7985 68.3016 42.8603C68.2934 42.9144 68.2729 42.9705 68.2403 43.0288C68.2089 43.0793 68.1703 43.1248 68.1246 43.1652C68.2996 43.4686 68.4668 43.7707 68.6262 44.0717C68.7869 44.365 68.9859 44.6404 69.2231 44.8979C69.2404 44.9401 69.2445 44.9644 69.2356 44.971C69.2267 44.9775 69.2265 45.0051 69.2348 45.0538Z" fill="#940CC3" fill-opacity="0.33"/>
<path d="M74.0566 33.0336C74.0802 33.1081 74.1056 33.2271 74.1328 33.3906C74.0439 33.5498 73.9067 33.7121 73.7214 33.8773C73.5262 34.0374 73.314 34.1824 73.0847 34.3124C72.8457 34.4372 72.6032 34.5386 72.3574 34.6164C72.1018 34.6891 71.8642 34.7151 71.6446 34.6945C71.6372 34.6969 71.5372 34.6917 71.3447 34.6789C71.1498 34.6586 70.9043 34.6339 70.6083 34.6047C70.3048 34.5779 69.9705 34.5444 69.6054 34.5042C69.2329 34.4665 68.8678 34.4264 68.5102 34.3839C68.1526 34.3414 67.8271 34.2969 67.5338 34.2505C67.2306 34.1989 66.993 34.1472 66.8208 34.0951C66.6953 34.0611 66.5759 34.0334 66.4626 34.0119C66.3469 33.9829 66.2398 33.9554 66.1414 33.9292C65.9814 33.8897 65.8349 33.8541 65.702 33.8224C65.5592 33.7857 65.4302 33.7405 65.3149 33.6869C65.1898 33.6281 65.0772 33.5572 64.9771 33.4742C64.8696 33.3935 64.7662 33.2869 64.6669 33.1545C64.6759 33.0533 64.6921 32.9621 64.7156 32.8809C64.7316 32.8021 64.7611 32.7272 64.8042 32.6562L64.95 32.5732C64.9974 32.5418 65.0276 32.5076 65.0405 32.4708C65.0436 32.4288 65.0416 32.3967 65.0346 32.3743C65.0263 32.2704 65.0264 32.1802 65.035 32.1038C65.0337 32.0222 65.0239 31.9393 65.0054 31.855C65.0406 31.8111 65.0771 31.7708 65.1147 31.7343C65.1499 31.6904 65.1815 31.6476 65.2093 31.6061C65.3781 31.3887 65.5478 31.1998 65.7182 31.0393C65.8887 30.8788 66.1084 30.8093 66.3774 30.8306L66.4967 30.7806C66.5371 30.7268 66.5796 30.6929 66.6243 30.6787C66.669 30.6646 66.7346 30.652 66.8213 30.6409C66.8832 30.6295 66.9526 30.6157 67.0295 30.5996C67.0965 30.5784 67.1674 30.5436 67.2423 30.4954L67.3069 30.3889C67.3288 30.2508 67.322 30.126 67.2867 30.0142C67.2395 29.8653 67.1635 29.7418 67.0588 29.6439C66.954 29.5459 66.8516 29.4554 66.7516 29.3724C66.666 29.3093 66.5941 29.2501 66.5356 29.1949C66.4748 29.1322 66.4263 29.0697 66.3902 29.0074C66.1917 28.8981 66.0166 28.7979 65.8648 28.7066C65.7031 28.6103 65.5403 28.5102 65.3764 28.4064C65.0755 28.2067 64.7621 28.0191 64.4361 27.8437C64.1027 27.6706 63.7262 27.5685 63.3067 27.5374C63.2286 27.472 63.173 27.3872 63.14 27.2829C63.107 27.1786 63.0963 27.0673 63.108 26.9489C63.1123 26.8328 63.1239 26.7144 63.1431 26.5936C63.1509 26.5665 63.1562 26.5444 63.1589 26.5271C63.1593 26.5024 63.1634 26.4765 63.1712 26.4495C63.2531 26.4235 63.317 26.3664 63.3628 26.2782C63.3808 26.2315 63.3912 26.1995 63.3939 26.1823C63.3966 26.165 63.3994 26.1478 63.4021 26.1305C63.4205 26.0592 63.4387 26.0001 63.4567 25.9535C63.4723 25.8993 63.5027 25.8529 63.5477 25.814C63.7276 25.6833 63.8487 25.5221 63.9109 25.3303C63.9975 25.3192 64.0783 25.2896 64.1531 25.2413C64.2205 25.1954 64.2868 25.1457 64.3518 25.0924C64.3769 25.068 64.4031 25.0474 64.4306 25.0305C64.4506 25.016 64.4768 24.9954 64.5093 24.9687L64.5648 25.2216L64.8 25.1103C64.9195 25.0478 65.0646 25.0142 65.2351 25.0094C65.4033 24.9971 65.5404 25.0029 65.6463 25.0267C65.865 24.9411 66.0414 24.8771 66.1755 24.8346C66.3021 24.7945 66.4236 24.7643 66.54 24.7438C66.6565 24.7233 66.7727 24.7152 66.8888 24.7194C66.9951 24.7186 67.1123 24.7265 67.2405 24.7433C67.7972 24.5343 68.336 24.4374 68.8571 24.4528C69.3759 24.4606 69.8696 24.4928 70.3382 24.5493C70.3974 24.5552 70.4529 24.5622 70.5046 24.5704C70.5564 24.5786 70.607 24.5831 70.6564 24.5838C70.7047 24.6587 70.7543 24.7249 70.8053 24.7825C70.8563 24.8401 70.9099 24.8928 70.966 24.9406C71.0441 25.006 71.1147 25.0738 71.1779 25.1439C71.2336 25.2164 71.2756 25.2974 71.3039 25.3867C71.1564 25.8268 70.7647 26.1556 70.1289 26.3733C69.4907 26.5836 68.6315 26.704 67.5513 26.7345C67.4976 26.6942 67.4346 26.6895 67.3625 26.7205L67.2396 26.7595L67.2638 26.8747C67.2756 26.912 67.2899 26.9443 67.3068 26.9717C67.3237 26.9992 67.3643 27.0109 67.4286 27.0069C67.6754 27.191 67.9366 27.3951 68.2124 27.6192C68.4784 27.8382 68.7368 28.0719 68.9875 28.3203C69.2308 28.5711 69.4541 28.8364 69.6574 29.1162C69.8509 29.3909 69.9937 29.6735 70.0856 29.964C70.3214 30.7088 70.1196 31.3914 69.4801 32.0118L69.3108 32.176L69.525 32.2311C69.5693 32.2417 69.6567 32.2591 69.7873 32.2833C69.9081 32.3024 70.0487 32.3194 70.2091 32.3341C70.3671 32.3415 70.5276 32.3439 70.6908 32.3414C70.8515 32.3315 70.9854 32.3014 71.0924 32.2512C71.2026 32.3146 71.324 32.3745 71.4566 32.4309C71.5868 32.4798 71.7248 32.5017 71.8707 32.4965C71.9126 32.4996 71.9511 32.4915 71.9859 32.4723C72.0134 32.4554 72.0434 32.4336 72.0759 32.4069C72.1304 32.3979 72.1723 32.401 72.2018 32.4162C72.2312 32.4315 72.2618 32.4505 72.2935 32.4732C72.3426 32.4987 72.3953 32.5229 72.4518 32.546C72.5008 32.5715 72.5561 32.5909 72.6177 32.6041C72.6671 32.6049 72.7191 32.6007 72.7736 32.5917C72.8206 32.585 72.8639 32.5795 72.9035 32.5751C72.9855 32.5492 73.0449 32.5427 73.0817 32.5556C73.2617 32.5805 73.4133 32.6063 73.5364 32.6329C73.6498 32.6544 73.7407 32.6829 73.8094 32.7186C73.878 32.7542 73.9292 32.7994 73.963 32.8543C74.0018 32.8994 74.033 32.9592 74.0566 33.0336Z" fill="#940CC3" fill-opacity="0.33"/>
<path d="M66.652 17.8198C66.6489 17.9081 66.6265 17.993 66.585 18.0744C66.5381 18.1502 66.5292 18.2438 66.5585 18.3554C66.4834 18.4467 66.4022 18.5544 66.3149 18.6785C66.2165 18.8021 66.1209 18.9286 66.0278 19.058C65.9238 19.187 65.8199 19.3105 65.7163 19.4284C65.6015 19.546 65.4876 19.6415 65.3745 19.7148C65.3124 19.7513 65.2478 19.7795 65.1808 19.7992C65.1084 19.8132 65.0416 19.8275 64.9803 19.8419C64.9079 19.8559 64.8436 19.8785 64.7872 19.9097C64.7255 19.9351 64.6771 19.9749 64.642 20.0289C64.6043 19.9999 64.5685 19.9959 64.5346 20.0168C64.4897 20.0374 64.4516 20.0194 64.4205 19.963C64.2574 20.0402 64.1003 20.1065 63.9491 20.162C63.7979 20.2174 63.6469 20.2674 63.4961 20.3118C63.3452 20.3562 63.1944 20.4006 63.0436 20.445C62.8817 20.4891 62.7138 20.5495 62.5397 20.6262C62.5388 20.8086 62.5082 20.9706 62.4479 21.1122C62.3766 21.2534 62.2973 21.386 62.21 21.5101C62.1227 21.6341 62.03 21.7525 61.9321 21.8651C61.8284 21.983 61.7354 22.1124 61.6531 22.2532C61.4863 22.2805 61.3262 22.2748 61.1727 22.2362C61.0136 22.203 60.8608 22.1478 60.7143 22.0708C60.5567 21.9934 60.4026 21.8967 60.2519 21.7808C60.0955 21.6703 59.9282 21.5538 59.7502 21.4314C59.4088 21.237 59.114 21.0524 58.8659 20.8778C58.6121 20.7085 58.3751 20.5343 58.1547 20.3552C57.9287 20.1814 57.7004 19.9937 57.4699 19.792C57.2336 19.5957 56.9539 19.3758 56.6309 19.1322C56.6427 19.1105 56.6433 19.094 56.6326 19.0825C56.6166 19.0654 56.598 19.0454 56.5767 19.0225C56.6007 18.9681 56.5914 18.918 56.5488 18.8723C56.5317 18.8883 56.5201 18.9044 56.514 18.9208C56.4968 18.9368 56.4825 18.9501 56.4711 18.9607C56.4604 18.9493 56.45 18.9324 56.4397 18.9099C56.4241 18.8817 56.4139 18.8592 56.4089 18.8425C56.3987 18.82 56.3854 18.8057 56.369 18.7996C56.3469 18.7988 56.3242 18.8146 56.301 18.8469C56.3571 18.6665 56.3746 18.4847 56.3534 18.3016C56.3265 18.1237 56.2804 17.9424 56.2151 17.7577C56.2612 17.7041 56.2984 17.6694 56.3266 17.6539C56.3494 17.6326 56.375 17.6141 56.4031 17.5985C56.4256 17.5883 56.4511 17.5698 56.4797 17.5432C56.5026 17.5219 56.5316 17.4842 56.5666 17.4302C56.8062 17.3778 57.0247 17.3717 57.2223 17.4119C57.4146 17.4463 57.5948 17.508 57.763 17.5968C57.9312 17.6857 58.096 17.7938 58.2574 17.9211C58.4134 18.0427 58.5775 18.1673 58.7499 18.295C58.9113 18.4224 59.0867 18.5419 59.2762 18.6536C59.4657 18.7653 59.6754 18.8529 59.9054 18.9163C59.9308 18.978 59.9651 19.0262 60.0081 19.0609C60.04 19.0952 60.0803 19.127 60.1291 19.1564C60.1778 19.1857 60.2318 19.2208 60.2912 19.2616C60.3452 19.2967 60.3985 19.3538 60.4509 19.4331C60.5336 19.4415 60.6127 19.4692 60.6885 19.5161C60.7589 19.5573 60.8319 19.6013 60.9077 19.6482C60.9439 19.561 60.9961 19.491 61.0643 19.4382C61.1272 19.3796 61.1735 19.3204 61.2033 19.2606C61.0025 18.9993 60.7548 18.7335 60.4603 18.4633C60.1601 18.1984 59.8739 17.9312 59.6015 17.6618C59.6247 17.6295 59.6474 17.6137 59.6695 17.6145C59.6915 17.6152 59.7169 17.6023 59.7455 17.5757C59.7318 17.4923 59.7294 17.4038 59.7383 17.3101C59.7471 17.2164 59.7559 17.1228 59.7648 17.0291C59.7626 16.9351 59.7546 16.8464 59.741 16.763C59.7217 16.6849 59.6772 16.6142 59.6075 16.5509C59.6381 16.4691 59.6795 16.3932 59.7317 16.3232C59.7839 16.2532 59.8576 16.2005 59.9528 16.1652C60.1337 16.2102 60.3147 16.2498 60.4959 16.2838C60.6714 16.3232 60.8465 16.3736 61.0212 16.4351C61.1906 16.4908 61.3592 16.5686 61.527 16.6685C61.6949 16.7684 61.8505 16.9011 61.9939 17.0664C62.0205 17.095 62.0445 17.1207 62.0658 17.1436C62.0818 17.1608 62.0916 17.1943 62.0954 17.2442C62.1772 17.2747 62.2606 17.3412 62.3454 17.4437C62.4192 17.5458 62.4996 17.615 62.5868 17.6512C62.6328 17.7579 62.7064 17.8655 62.8076 17.9741C62.9034 18.077 62.9743 18.1818 63.0203 18.2884C63.2648 18.2528 63.5125 18.2035 63.7635 18.1406C64.0088 18.0829 64.2548 18.0031 64.5016 17.9013C64.3176 17.635 64.1508 17.4273 64.0013 17.2783C63.8517 17.1293 63.7045 16.9942 63.5595 16.873C63.4146 16.7518 63.2669 16.6278 63.1167 16.5008C62.961 16.3682 62.7876 16.1935 62.5962 15.9767C62.3945 15.8977 62.197 15.7774 62.0037 15.6158C61.7994 15.4538 61.5969 15.3167 61.3964 15.2046C61.3603 15.1315 61.3493 15.0509 61.3634 14.963C61.3719 14.8804 61.3859 14.7979 61.4053 14.7157C61.4138 14.6331 61.4165 14.5558 61.4135 14.4838C61.4106 14.4119 61.3741 14.3498 61.304 14.2976C61.306 14.2423 61.3243 14.1932 61.359 14.1502C61.3884 14.1015 61.4175 14.0583 61.4465 14.0207C61.4701 13.9773 61.4854 13.9364 61.4923 13.8979C61.4935 13.8648 61.4699 13.828 61.4216 13.7876C61.7457 13.6885 62.0317 13.6516 62.2795 13.677C62.522 13.6966 62.7575 13.7602 62.9858 13.8678C63.2032 13.975 63.4275 14.1183 63.6588 14.2979C63.8791 14.477 64.132 14.6739 64.4174 14.8885C64.4874 14.9407 64.538 14.995 64.5692 15.0514C64.5893 15.1074 64.6207 15.1582 64.6633 15.204C64.841 15.3374 65.048 15.5022 65.2842 15.6985C65.5152 15.8891 65.7317 16.0985 65.9337 16.3268C66.1356 16.555 66.3068 16.796 66.4471 17.0497C66.5873 17.3034 66.6557 17.5601 66.652 17.8198Z" fill="#940CC3" fill-opacity="0.33"/>
<path d="M55.3052 9.54831C55.3221 9.48614 55.3405 9.42929 55.3604 9.37775C55.3802 9.32621 55.3986 9.26936 55.4155 9.20719C55.481 9.15428 55.543 9.09947 55.6016 9.04274C55.6564 8.99283 55.7112 8.94293 55.766 8.89302C55.8131 8.85675 55.8439 8.8337 55.8584 8.82388C55.8728 8.81406 55.882 8.80575 55.8858 8.79893C55.8896 8.79211 55.8953 8.78188 55.903 8.76825C55.9 8.75762 55.9118 8.72844 55.9385 8.68072L56.0481 8.58091C56.1089 8.55226 56.1708 8.53766 56.2338 8.53711C56.2968 8.53655 56.3578 8.5394 56.417 8.54566C56.4383 8.53966 56.4645 8.54088 56.4955 8.54932C56.5304 8.55095 56.5585 8.54877 56.5798 8.54276L56.6791 8.43722L56.8235 8.49118C56.9547 8.52878 57.0612 8.57048 57.143 8.61627L57.2657 8.68495C57.3055 8.80573 57.3378 8.89993 57.3627 8.96754C57.3875 9.03516 57.4176 9.10127 57.4531 9.16589C57.4678 9.29948 57.4672 9.38864 57.4511 9.43336C57.4312 9.4849 57.4166 9.53494 57.4074 9.58347C57.3714 9.67973 57.356 9.74721 57.3612 9.78593L57.4242 10.0092L57.25 10.0326L57.2537 10.2898C57.1376 10.3054 57.0514 10.3154 56.9953 10.3197C56.9391 10.3241 56.8897 10.3323 56.8472 10.3443C56.8009 10.3631 56.7473 10.3869 56.6865 10.4155C56.6257 10.4441 56.5273 10.492 56.3912 10.5591L56.2248 10.6405L56.1319 10.4945C56.1161 10.4588 56.0696 10.4059 55.9924 10.3359C55.9046 10.2688 55.8304 10.2094 55.7699 10.1576C55.6731 10.0587 55.5793 9.97033 55.4885 9.89264C55.3938 9.82177 55.3311 9.74189 55.3003 9.65301L55.3052 9.54831Z" fill="#940CC3" fill-opacity="0.33"/>
<path d="M47.9745 6.57146C47.9764 6.50707 47.9809 6.44749 47.9882 6.39272C47.9954 6.33796 48 6.27838 48.0019 6.21398C48.0531 6.14722 48.1005 6.07939 48.1442 6.01051C48.1858 5.94916 48.2273 5.8878 48.2689 5.82644C48.3063 5.78013 48.3308 5.7505 48.3426 5.73757C48.3543 5.72464 48.3612 5.71442 48.3633 5.7069C48.3655 5.69937 48.3686 5.68809 48.3729 5.67305C48.3674 5.66341 48.3721 5.63227 48.3869 5.57962L48.4701 5.45691C48.5225 5.41482 48.5792 5.38612 48.6403 5.37082C48.7014 5.35552 48.7614 5.34398 48.8204 5.3362C48.8397 5.32538 48.8654 5.32043 48.8976 5.32136C48.9319 5.31477 48.9587 5.30606 48.978 5.29524L49.0499 5.16936L49.2029 5.18798C49.3392 5.1938 49.4525 5.20939 49.5427 5.23473L49.6781 5.27275C49.7451 5.38084 49.7987 5.46483 49.8386 5.52475C49.8786 5.58466 49.9234 5.64187 49.973 5.69638C50.0187 5.8228 50.0389 5.90964 50.0338 5.95688C50.0265 6.01164 50.024 6.0637 50.0264 6.11305C50.014 6.21506 50.0148 6.28427 50.029 6.32069L50.1426 6.523L49.9787 6.58652L50.0426 6.83574C49.9333 6.87809 49.8519 6.90797 49.7983 6.92538C49.7447 6.94279 49.6987 6.96232 49.6601 6.98396C49.6195 7.01312 49.573 7.04874 49.5206 7.09083C49.4682 7.13292 49.3837 7.20252 49.2672 7.29963L49.1244 7.41779L49 7.29762C48.9762 7.26661 48.9186 7.22609 48.8272 7.17607C48.7261 7.13145 48.6401 7.09107 48.5691 7.0549C48.4518 6.98139 48.3399 6.9175 48.2334 6.86326C48.1248 6.81653 48.0451 6.75358 47.9943 6.67439L47.9745 6.57146Z" fill="#940CC3" fill-opacity="0.33"/>
</svg>
