<svg width="40" height="41" viewBox="0 0 40 41" fill="none" xmlns="http://www.w3.org/2000/svg">
<path d="M31.6667 5.04297C32.5507 5.04297 33.3986 5.39416 34.0237 6.01928C34.6488 6.6444 35 7.49225 35 8.3763V31.7096C35 32.5937 34.6488 33.4415 34.0237 34.0667C33.3986 34.6918 32.5507 35.043 31.6667 35.043H8.33333C7.44928 35.043 6.60143 34.6918 5.97631 34.0667C5.35119 33.4415 5 32.5937 5 31.7096V8.3763C5 7.49225 5.35119 6.6444 5.97631 6.01928C6.60143 5.39416 7.44928 5.04297 8.33333 5.04297H31.6667ZM30.8333 30.8763V22.043C30.8333 20.602 30.2609 19.22 29.2419 18.201C28.223 17.1821 26.841 16.6096 25.4 16.6096C23.9833 16.6096 22.3333 17.4763 21.5333 18.7763V16.9263H16.8833V30.8763H21.5333V22.6596C21.5333 21.3763 22.5667 20.3263 23.85 20.3263C24.4688 20.3263 25.0623 20.5721 25.4999 21.0097C25.9375 21.4473 26.1833 22.0408 26.1833 22.6596V30.8763H30.8333ZM11.4667 14.3096C12.2093 14.3096 12.9215 14.0146 13.4466 13.4895C13.9717 12.9644 14.2667 12.2522 14.2667 11.5096C14.2667 9.95964 13.0167 8.69297 11.4667 8.69297C10.7196 8.69297 10.0032 8.98972 9.47498 9.51795C8.94675 10.0462 8.65 10.7626 8.65 11.5096C8.65 13.0596 9.91667 14.3096 11.4667 14.3096ZM13.7833 30.8763V16.9263H9.16667V30.8763H13.7833Z" fill="white"/>
</svg>
