<svg width="40" height="41" viewBox="0 0 40 41" fill="none" xmlns="http://www.w3.org/2000/svg">
<g clip-path="url(#clip0_23_405)">
<path d="M30.625 0.0429688H9.375C4.19733 0.0429688 0 4.2403 0 9.41797V30.668C0 35.8456 4.19733 40.043 9.375 40.043H30.625C35.8027 40.043 40 35.8456 40 30.668V9.41797C40 4.2403 35.8027 0.0429688 30.625 0.0429688Z" fill="url(#paint0_radial_23_405)"/>
<path d="M30.625 0.0429688H9.375C4.19733 0.0429688 0 4.2403 0 9.41797V30.668C0 35.8456 4.19733 40.043 9.375 40.043H30.625C35.8027 40.043 40 35.8456 40 30.668V9.41797C40 4.2403 35.8027 0.0429688 30.625 0.0429688Z" fill="url(#paint1_radial_23_405)"/>
<path d="M20.0014 4.41797C15.758 4.41797 15.2253 4.43656 13.5588 4.51234C11.8953 4.58859 10.7598 4.85187 9.76641 5.23828C8.73859 5.63734 7.86688 6.17125 6.99844 7.04C6.12922 7.90859 5.59531 8.78031 5.195 9.80766C4.8075 10.8014 4.54391 11.9373 4.46906 13.6C4.39453 15.2667 4.375 15.7995 4.375 20.0431C4.375 24.2867 4.39375 24.8177 4.46938 26.4842C4.54594 28.1477 4.80922 29.2831 5.19531 30.2766C5.59469 31.3044 6.12859 32.1761 6.99734 33.0445C7.86563 33.9138 8.73734 34.4489 9.76438 34.848C10.7586 35.2344 11.8942 35.4977 13.5573 35.5739C15.2241 35.6497 15.7563 35.6683 19.9995 35.6683C24.2434 35.6683 24.7744 35.6497 26.4409 35.5739C28.1044 35.4977 29.2411 35.2344 30.2353 34.848C31.2627 34.4489 32.1331 33.9138 33.0012 33.0445C33.8705 32.1761 34.4042 31.3044 34.8047 30.277C35.1887 29.2831 35.4525 28.1473 35.5306 26.4845C35.6055 24.818 35.625 24.2867 35.625 20.0431C35.625 15.7995 35.6055 15.267 35.5306 13.6003C35.4525 11.9369 35.1887 10.8016 34.8047 9.80813C34.4042 8.78031 33.8705 7.90859 33.0012 7.04C32.1322 6.17094 31.263 5.63703 30.2344 5.23844C29.2383 4.85187 28.1022 4.58844 26.4387 4.51234C24.772 4.43656 24.2414 4.41797 19.9966 4.41797H20.0014ZM18.5997 7.23375C19.0158 7.23312 19.48 7.23375 20.0014 7.23375C24.1734 7.23375 24.6678 7.24875 26.3153 7.32359C27.8387 7.39328 28.6656 7.64781 29.2164 7.86172C29.9456 8.14484 30.4655 8.48344 31.012 9.03047C31.5589 9.57734 31.8973 10.0981 32.1813 10.8273C32.3952 11.3773 32.65 12.2042 32.7194 13.7277C32.7942 15.3748 32.8105 15.8695 32.8105 20.0395C32.8105 24.2095 32.7942 24.7044 32.7194 26.3514C32.6497 27.8748 32.3952 28.7017 32.1813 29.2519C31.8981 29.9811 31.5589 30.5003 31.012 31.0469C30.4652 31.5938 29.9459 31.9322 29.2164 32.2155C28.6663 32.4303 27.8387 32.6842 26.3153 32.7539C24.6681 32.8288 24.1734 32.845 20.0014 32.845C15.8292 32.845 15.3347 32.8288 13.6877 32.7539C12.1642 32.6836 11.3373 32.4291 10.7861 32.2152C10.057 31.9319 9.53609 31.5934 8.98922 31.0466C8.44234 30.4997 8.10391 29.9802 7.82 29.2506C7.60609 28.7005 7.35125 27.8736 7.28188 26.3502C7.20703 24.703 7.19203 24.2083 7.19203 20.0356C7.19203 15.8631 7.20703 15.3709 7.28188 13.7237C7.35156 12.2003 7.60609 11.3734 7.82 10.8227C8.10328 10.0934 8.44234 9.57266 8.98938 9.02578C9.53625 8.47891 10.057 8.14031 10.7862 7.85656C11.337 7.64172 12.1642 7.38781 13.6877 7.31781C15.1291 7.25266 15.6877 7.23312 18.5997 7.22984V7.23375ZM28.342 9.82812C27.3069 9.82812 26.467 10.6672 26.467 11.7025C26.467 12.7377 27.3069 13.5775 28.342 13.5775C29.3772 13.5775 30.217 12.7377 30.217 11.7025C30.217 10.6673 29.3772 9.8275 28.342 9.8275V9.82812ZM20.0014 12.0189C15.5702 12.0189 11.9773 15.6117 11.9773 20.0431C11.9773 24.4745 15.5702 28.0656 20.0014 28.0656C24.4328 28.0656 28.0244 24.4745 28.0244 20.0431C28.0244 15.6119 24.4325 12.0189 20.0011 12.0189H20.0014ZM20.0014 14.8347C22.8778 14.8347 25.2098 17.1664 25.2098 20.0431C25.2098 22.9195 22.8778 25.2516 20.0014 25.2516C17.1248 25.2516 14.7931 22.9195 14.7931 20.0431C14.7931 17.1664 17.1248 14.8347 20.0014 14.8347Z" fill="white"/>
</g>
<defs>
<radialGradient id="paint0_radial_23_405" cx="0" cy="0" r="1" gradientUnits="userSpaceOnUse" gradientTransform="translate(10.625 43.1237) rotate(-90) scale(39.643 36.8711)">
<stop stop-color="#FFDD55"/>
<stop offset="0.1" stop-color="#FFDD55"/>
<stop offset="0.5" stop-color="#FF543E"/>
<stop offset="1" stop-color="#C837AB"/>
</radialGradient>
<radialGradient id="paint1_radial_23_405" cx="0" cy="0" r="1" gradientUnits="userSpaceOnUse" gradientTransform="translate(-6.70016 2.92437) rotate(78.681) scale(17.7206 73.045)">
<stop stop-color="#3771C8"/>
<stop offset="0.128" stop-color="#3771C8"/>
<stop offset="1" stop-color="#6600FF" stop-opacity="0"/>
</radialGradient>
<clipPath id="clip0_23_405">
<rect width="40" height="40" fill="white" transform="translate(0 0.0429688)"/>
</clipPath>
</defs>
</svg>
